<?xml version="1.0" standalone="no"?>
<!DOCTYPE svg PUBLIC "-//W3C//DTD SVG 20010904//EN"
 "http://www.w3.org/TR/2001/REC-SVG-20010904/DTD/svg10.dtd">
<svg version="1.0" xmlns="http://www.w3.org/2000/svg"
 width="3576.000000pt" height="1476.000000pt" viewBox="0 0 3576.000000 1476.000000"
 preserveAspectRatio="xMidYMid meet">

<g transform="translate(0.000000,1476.000000) scale(0.100000,-0.100000)"
fill="#000000" stroke="none">
<path d="M5540 14311 c-20 -26 -34 -34 -71 -38 -34 -4 -48 -11 -55 -27 -7 -16
-20 -22 -54 -26 -38 -4 -47 -10 -60 -36 -16 -33 -80 -74 -116 -74 -11 0 -29
-9 -39 -20 -10 -11 -24 -20 -31 -20 -8 0 -20 -15 -28 -33 -16 -39 -91 -107
-118 -107 -11 0 -18 -7 -18 -20 0 -11 -7 -20 -15 -20 -9 0 -18 -8 -22 -17 -11
-33 -156 -173 -179 -173 -20 0 -74 -65 -74 -89 0 -5 -7 -14 -15 -21 -8 -7 -15
-24 -15 -37 0 -17 -19 -46 -55 -85 -30 -32 -55 -68 -55 -78 0 -11 -31 -52 -70
-91 -38 -40 -70 -77 -70 -83 0 -16 -132 -146 -148 -146 -6 0 -12 -7 -12 -15 0
-8 -6 -15 -12 -15 -7 -1 -31 -19 -53 -40 -24 -25 -50 -40 -65 -40 -17 -1 -44
-20 -84 -60 -42 -43 -67 -60 -86 -60 -18 0 -44 -18 -90 -65 -49 -49 -71 -65
-93 -65 -20 0 -44 -16 -92 -62 -36 -34 -65 -68 -65 -75 0 -7 -12 -18 -26 -23
-28 -11 -284 -267 -284 -285 0 -14 -49 -60 -72 -68 -10 -4 -18 -13 -18 -22 0
-8 -7 -15 -15 -15 -8 0 -15 -7 -15 -15 0 -8 -7 -15 -15 -15 -10 0 -17 -14 -21
-40 -4 -22 -12 -40 -19 -40 -7 0 -15 -9 -18 -21 -3 -11 -14 -23 -25 -26 -11
-3 -23 -15 -26 -28 -6 -24 -272 -285 -291 -285 -13 0 -85 -77 -85 -90 0 -6 -7
-10 -15 -10 -8 0 -15 -5 -15 -12 0 -6 -9 -21 -19 -32 -11 -12 -33 -48 -49 -81
-17 -33 -44 -73 -61 -89 -17 -17 -31 -38 -31 -48 0 -9 -13 -32 -28 -50 -16
-18 -32 -49 -35 -69 -6 -41 -65 -138 -84 -138 -7 -1 -13 -11 -13 -24 0 -23
-57 -107 -72 -107 -4 0 -8 -7 -8 -15 0 -8 -13 -30 -30 -48 -16 -19 -30 -40
-30 -46 0 -6 -4 -11 -9 -11 -5 0 -12 -13 -16 -28 -3 -16 -21 -44 -40 -62 -19
-19 -35 -38 -35 -42 0 -5 -11 -26 -25 -48 -14 -22 -25 -46 -25 -53 0 -14 -56
-75 -103 -113 -14 -12 -29 -35 -32 -50 -11 -49 -39 -98 -63 -109 -12 -5 -22
-14 -22 -18 0 -5 -9 -20 -20 -34 -11 -14 -20 -33 -20 -42 0 -10 -26 -48 -58
-87 -32 -38 -61 -77 -65 -86 -3 -10 -11 -18 -16 -18 -5 0 -12 -10 -15 -22 -3
-13 -48 -67 -100 -120 -68 -72 -100 -98 -118 -98 -29 0 -68 -38 -68 -66 -1
-24 -32 -61 -85 -99 -22 -16 -46 -38 -54 -50 -8 -11 -46 -53 -85 -92 -52 -55
-76 -73 -96 -73 -31 0 -90 -56 -90 -85 0 -11 -41 -63 -91 -115 -50 -52 -98
-107 -108 -122 -10 -15 -33 -38 -51 -50 -18 -13 -36 -30 -40 -38 -24 -52 -45
-88 -63 -107 -27 -31 -44 -202 -28 -289 6 -34 11 -84 11 -113 0 -45 2 -51 21
-51 27 0 48 -27 49 -62 0 -16 5 -28 10 -28 6 0 10 -14 10 -30 0 -17 4 -38 9
-48 5 -9 14 -44 20 -76 6 -32 17 -66 26 -76 8 -9 18 -39 22 -66 5 -41 13 -55
50 -87 23 -21 43 -45 43 -53 0 -8 5 -14 10 -14 6 0 10 -10 10 -23 0 -14 16
-39 40 -62 22 -21 40 -45 40 -51 0 -7 35 -42 77 -78 43 -36 89 -76 103 -89 21
-21 40 -26 115 -32 50 -4 99 -8 111 -9 11 -1 25 -6 32 -10 7 -4 12 -2 12 3 0
20 32 11 37 -9 5 -19 14 -20 248 -20 224 0 244 1 267 19 13 11 42 23 63 27 27
5 55 22 91 55 29 28 64 52 82 55 23 5 32 12 32 27 0 32 47 87 76 87 16 0 24 6
24 18 0 9 9 28 20 42 11 14 20 29 20 33 0 5 25 33 55 64 30 31 55 62 55 70 0
22 360 379 408 403 23 12 46 27 50 34 20 31 133 116 154 116 16 0 47 24 98 75
54 54 82 75 100 75 14 0 30 8 37 19 14 22 86 61 114 61 11 0 35 11 53 25 18
14 37 25 41 25 5 0 15 7 24 15 38 37 95 75 112 75 10 0 21 5 24 10 3 6 16 10
28 10 12 0 33 9 47 20 14 11 31 20 38 20 8 0 27 14 42 30 23 25 36 30 74 30
35 0 46 4 46 15 0 9 11 20 24 25 13 5 27 14 31 19 3 6 20 11 37 11 19 0 41 9
56 22 18 18 35 23 82 23 41 0 64 5 77 17 21 20 159 52 182 43 9 -4 22 3 31 14
8 11 24 22 35 24 11 2 28 7 38 12 10 4 28 3 39 -2 16 -7 36 -2 86 25 63 32 68
33 149 28 l83 -5 0 29 c0 23 5 30 19 30 11 0 23 5 26 10 7 12 62 13 67 2 2 -5
15 -12 31 -16 23 -5 29 -3 36 16 17 44 46 61 95 55 35 -5 47 -3 61 13 12 13
31 20 57 20 28 0 46 7 63 24 23 23 80 56 97 56 4 0 8 -6 8 -14 0 -7 6 -19 14
-25 12 -10 20 -3 46 33 31 46 55 59 100 54 17 -2 28 3 34 19 11 23 33 33 76
33 14 0 31 9 37 19 21 33 103 66 103 41 0 -19 25 -10 53 20 25 26 36 30 82 30
30 0 57 -5 60 -10 4 -7 11 -7 18 -2 17 14 101 24 131 16 17 -4 26 -13 26 -25
0 -12 7 -19 20 -19 11 0 20 -4 20 -10 0 -6 30 -10 69 -10 39 0 73 5 76 10 9
15 57 12 79 -5 11 -8 27 -15 36 -15 9 0 25 -9 35 -20 22 -24 35 -26 35 -5 0
20 34 19 82 -2 28 -13 38 -23 38 -40 0 -21 3 -23 40 -17 63 10 90 -1 90 -36 0
-27 2 -29 18 -19 30 19 72 3 85 -31 12 -31 21 -37 32 -20 15 24 85 -19 85 -52
0 -14 5 -17 24 -12 38 9 61 -3 90 -46 16 -24 34 -40 46 -40 11 0 20 -4 20 -10
0 -5 7 -10 17 -10 9 0 31 -11 49 -25 18 -14 46 -28 63 -31 18 -4 60 -35 108
-81 46 -44 90 -77 106 -80 16 -3 31 -12 34 -19 3 -8 11 -14 18 -14 7 0 47 -33
89 -74 57 -55 82 -73 97 -69 20 6 73 -33 64 -47 -2 -4 29 -33 70 -66 41 -32
75 -62 75 -66 0 -4 15 -8 33 -8 28 0 44 -10 92 -59 31 -32 57 -63 57 -67 -1
-13 70 -84 83 -84 6 0 30 -19 53 -43 23 -23 58 -51 79 -62 52 -26 83 -55 83
-77 0 -11 7 -18 18 -18 28 0 99 -55 125 -97 13 -21 27 -54 31 -73 6 -36 35
-70 59 -70 32 0 57 -31 57 -70 0 -21 -4 -42 -10 -45 -12 -8 -13 -52 -1 -59 4
-3 11 -23 15 -44 3 -21 15 -47 26 -57 18 -16 21 -29 19 -89 -2 -60 0 -71 17
-80 32 -18 35 -29 30 -93 -5 -60 -4 -63 17 -63 28 0 51 -48 45 -96 -4 -30 0
-38 23 -51 15 -9 30 -27 33 -39 4 -13 15 -28 26 -34 12 -6 20 -21 20 -35 0
-14 6 -25 13 -25 32 0 75 -118 48 -134 -4 -3 -6 -17 -4 -30 7 -32 -26 -205
-44 -231 -16 -24 -17 -89 -1 -114 16 -27 -6 -122 -38 -160 -22 -27 -24 -38
-26 -135 0 -59 -5 -109 -10 -112 -4 -3 -6 -9 -3 -13 2 -5 -2 -22 -11 -39 -8
-17 -18 -48 -20 -69 -3 -21 -9 -47 -14 -58 -5 -11 -10 -54 -13 -95 -2 -47 -10
-85 -20 -100 -9 -14 -21 -65 -27 -115 -8 -69 -15 -93 -31 -105 -16 -13 -18
-23 -13 -61 5 -37 1 -56 -20 -102 -15 -30 -32 -58 -39 -61 -9 -5 -9 -7 1 -12
13 -6 17 -54 4 -54 -4 0 -12 -10 -17 -22 -6 -13 -20 -24 -33 -26 -18 -3 -22
-8 -17 -20 4 -9 9 -24 12 -33 7 -24 -24 -90 -45 -95 -14 -4 -17 -13 -14 -43 3
-28 -3 -49 -22 -79 -14 -22 -30 -43 -36 -47 -5 -3 -10 -23 -10 -44 0 -25 -7
-44 -20 -56 -11 -10 -20 -28 -20 -39 0 -39 -11 -63 -34 -75 -16 -9 -22 -21
-22 -47 0 -25 -8 -42 -32 -65 -18 -17 -34 -46 -38 -66 -4 -19 -15 -40 -25 -46
-12 -7 -19 -23 -19 -41 0 -20 -11 -39 -36 -62 -19 -19 -31 -34 -25 -34 17 0
13 -47 -5 -75 -9 -14 -25 -25 -35 -25 -21 0 -23 -8 -9 -44 8 -23 -12 -109 -42
-168 -11 -25 -10 -86 2 -93 6 -4 22 -25 37 -48 14 -22 34 -50 44 -61 11 -11
19 -28 19 -38 0 -10 9 -23 20 -30 11 -7 20 -18 20 -24 0 -7 9 -22 19 -35 15
-18 27 -23 54 -21 28 3 40 -2 61 -25 14 -15 26 -33 26 -39 0 -11 53 -54 67
-54 5 0 13 -10 18 -22 7 -17 17 -22 36 -20 20 2 34 -8 68 -48 23 -27 46 -50
51 -50 5 0 32 -23 61 -50 40 -38 60 -50 83 -50 35 0 100 -16 133 -32 17 -8 25
-7 36 4 12 12 59 16 213 21 108 4 234 7 280 7 46 0 86 5 89 10 8 14 527 14
541 0 16 -16 410 -9 406 8 -1 6 -1 13 0 14 2 1 131 5 288 9 157 4 442 13 635
19 333 11 350 10 363 -7 7 -10 12 -27 10 -38 -1 -12 7 -33 19 -49 12 -15 25
-47 29 -72 5 -37 10 -44 29 -44 12 0 34 -9 48 -20 14 -11 30 -20 36 -20 6 0
11 -6 11 -14 0 -9 12 -16 28 -18 15 -2 27 -8 27 -15 0 -14 70 -63 90 -63 8 0
16 -4 19 -9 3 -5 25 -6 48 -4 38 4 46 1 72 -26 21 -22 39 -31 62 -31 18 0 67
-17 110 -39 70 -36 79 -38 98 -25 11 8 35 14 53 14 28 0 33 -4 33 -24 0 -18 8
-27 31 -35 17 -6 35 -8 40 -5 12 7 118 -22 137 -39 10 -8 41 -17 71 -19 29 -3
56 -10 60 -16 14 -23 115 -82 140 -82 16 0 36 -9 47 -21 20 -23 119 -89 132
-89 4 0 28 -20 52 -45 26 -27 53 -45 66 -45 29 0 88 -39 100 -65 5 -11 21 -21
35 -23 37 -4 164 -113 177 -152 10 -28 9 -32 -14 -40 -14 -6 -23 -14 -20 -19
3 -5 -21 -33 -54 -61 -51 -45 -65 -52 -90 -47 -27 6 -43 -8 -231 -198 -160
-161 -208 -205 -228 -205 -18 0 -37 -13 -63 -42 l-36 -43 -305 4 c-295 3 -402
-4 -431 -31 -6 -4 -17 -8 -25 -8 -42 0 -93 -24 -123 -58 -27 -30 -109 -113
-148 -149 -25 -23 -100 -111 -100 -117 0 -10 -88 -96 -99 -96 -5 0 -11 -12
-13 -27 -2 -19 -16 -36 -43 -54 -36 -24 -60 -54 -82 -98 -3 -8 -23 -30 -43
-50 -45 -44 -70 -84 -70 -110 0 -11 -12 -33 -26 -50 -22 -26 -25 -37 -19 -70
9 -53 29 -59 193 -64 101 -3 136 -7 143 -18 7 -12 72 -15 374 -17 324 -3 365
-1 365 13 0 9 10 15 28 16 365 15 460 20 528 25 l81 5 7 61 c3 34 10 66 15 72
11 14 21 62 29 146 6 55 10 65 28 68 17 2 20 10 20 50 -1 45 1 48 46 77 26 16
47 35 47 42 2 26 44 35 139 31 78 -3 97 -7 111 -24 11 -13 30 -20 61 -21 34
-2 50 -8 67 -28 14 -16 32 -25 51 -25 15 0 33 -5 39 -11 14 -14 157 -24 217
-15 30 5 46 12 46 22 0 8 5 14 10 14 6 0 29 17 53 39 23 21 56 45 72 54 17 8
39 24 49 36 11 12 25 21 33 21 7 0 13 6 13 13 0 6 18 29 40 51 22 21 40 44 40
50 0 22 55 64 93 71 20 4 37 11 37 16 0 5 11 9 25 9 18 0 48 -24 110 -87 47
-48 85 -93 85 -100 0 -7 5 -13 11 -13 7 0 53 -38 104 -85 66 -60 100 -85 118
-85 14 0 28 -4 31 -9 3 -5 22 -12 42 -16 20 -3 48 -15 63 -25 21 -15 52 -19
166 -23 103 -4 149 -9 172 -21 17 -9 56 -20 85 -23 29 -3 70 -17 90 -30 21
-12 45 -23 53 -23 9 0 40 -11 68 -24 29 -13 62 -27 74 -30 12 -4 38 -20 58
-36 21 -17 46 -30 55 -30 10 0 41 -25 68 -55 28 -30 54 -55 59 -55 4 0 22 -21
38 -45 23 -35 36 -45 57 -45 15 0 29 -4 32 -9 4 -6 248 -10 591 -10 518 -1
585 1 585 14 0 9 12 18 30 22 17 3 33 10 36 14 3 5 14 9 25 9 28 0 24 11 -26
60 -25 24 -45 49 -45 56 0 7 -7 14 -15 18 -8 3 -15 15 -15 26 0 12 -7 20 -17
20 -9 0 -23 7 -32 15 -9 8 -31 27 -48 41 -18 14 -33 35 -33 46 0 12 -19 42
-42 68 -59 65 -108 122 -108 127 0 2 -18 22 -39 46 -104 114 -166 185 -186
217 -13 19 -49 60 -80 90 -53 51 -115 132 -115 148 0 9 -94 114 -178 199 -40
40 -62 71 -62 85 0 22 -3 23 -99 23 -75 0 -104 -4 -118 -16 -29 -25 -93 -59
-110 -59 -19 0 -79 -18 -105 -31 -32 -16 -98 -10 -125 11 -14 11 -34 20 -43
20 -10 0 -23 7 -30 15 -7 8 -18 15 -25 15 -7 0 -18 6 -24 14 -6 7 -32 16 -57
20 -38 5 -54 15 -108 69 -56 56 -64 69 -64 101 0 20 -7 45 -16 55 -9 10 -16
29 -16 43 0 27 27 38 94 38 36 0 56 15 56 41 0 21 46 59 71 59 14 0 19 -7 19
-31 0 -16 4 -28 9 -24 5 3 7 20 4 38 -7 44 17 63 87 70 30 3 69 12 85 21 17 9
35 16 42 16 6 0 20 17 30 38 19 40 75 75 106 66 10 -3 32 7 54 25 21 17 42 31
48 31 6 0 26 11 45 25 19 14 43 25 54 25 12 0 33 15 49 35 22 28 35 35 63 35
24 0 46 9 66 25 16 14 39 25 51 25 11 0 31 9 43 21 15 14 41 22 82 26 46 4 61
10 65 23 9 36 116 67 133 38 5 -8 10 -7 18 3 36 47 67 59 144 57 58 -1 77 1
80 13 12 35 32 37 262 32 214 -5 226 -6 242 -27 16 -19 26 -21 141 -21 73 0
135 -5 148 -12 30 -14 97 -32 172 -45 42 -7 62 -6 72 2 11 9 28 7 77 -11 35
-12 68 -29 74 -37 9 -13 18 -14 55 -4 45 11 68 11 104 -3 11 -4 26 -9 33 -11
8 -2 16 -14 19 -25 5 -20 11 -21 59 -15 34 4 54 2 54 -4 0 -5 13 -10 29 -10
17 0 32 -4 35 -9 3 -4 20 -11 37 -15 17 -3 45 -12 62 -20 18 -8 52 -17 77 -21
25 -3 55 -12 67 -20 12 -8 44 -17 70 -19 189 -16 208 -19 230 -39 19 -17 27
-18 45 -10 61 29 97 43 111 43 8 0 27 15 41 32 14 18 33 40 41 49 8 8 18 30
21 47 4 18 10 32 15 32 5 0 9 5 9 11 0 6 11 24 25 41 14 16 25 40 25 53 0 13
19 44 45 73 25 27 45 57 45 65 0 9 11 29 25 45 14 17 25 37 25 45 0 9 5 19 10
22 5 3 10 15 10 25 0 10 11 32 25 48 14 17 25 38 25 47 0 10 20 42 45 71 25
28 45 58 45 66 0 7 14 31 30 53 59 78 546 585 562 585 5 0 21 12 36 28 16 15
41 34 56 43 16 9 36 29 45 44 9 16 38 51 64 78 40 40 53 48 74 42 19 -4 26 -1
30 15 6 21 69 60 99 60 9 0 28 8 42 19 15 10 44 21 64 25 37 7 313 140 323
156 3 5 24 11 48 15 23 4 53 16 66 26 13 11 30 19 37 19 8 0 14 5 14 10 0 6 7
10 15 10 8 0 34 9 58 19 23 10 63 24 89 31 26 7 53 19 59 26 6 8 22 14 35 14
15 0 42 16 68 40 34 31 51 40 79 40 26 0 39 6 47 20 7 14 21 20 44 20 22 0 40
8 56 25 13 14 34 25 47 25 13 0 40 16 60 35 28 27 46 35 73 35 30 0 39 5 48
25 10 21 19 25 52 25 34 0 40 3 40 20 0 11 8 23 18 27 9 4 36 19 59 35 23 15
48 28 57 28 8 0 28 12 45 26 17 14 46 28 66 31 27 4 52 21 95 64 37 38 67 59
82 59 15 1 51 27 101 75 49 47 87 75 100 75 15 0 66 43 153 128 137 132 184
172 204 172 19 0 63 37 173 143 63 61 109 97 122 97 14 0 50 29 98 79 42 43
93 90 112 105 25 20 35 35 35 55 0 16 10 37 25 51 14 13 25 27 25 31 0 4 34
43 75 86 41 43 75 86 75 95 0 9 29 46 65 82 36 36 65 69 65 73 0 5 52 60 115
123 66 66 115 123 115 134 0 10 28 51 63 91 88 102 91 107 105 141 8 17 31 50
53 72 21 23 39 45 39 50 0 5 6 15 14 21 7 6 19 33 26 59 6 26 16 56 20 67 5
11 11 33 15 50 4 16 12 36 18 44 7 7 17 37 22 65 8 38 16 54 33 61 13 6 22 19
22 32 0 12 4 24 9 28 5 3 12 18 16 33 3 18 20 37 49 55 38 24 44 33 49 72 9
61 39 124 76 159 16 16 33 42 36 58 10 42 120 178 145 178 4 0 30 24 57 53 57
63 85 82 132 91 19 3 43 14 53 23 15 13 41 18 114 19 52 1 100 7 108 13 26 22
169 33 335 27 145 -5 166 -8 177 -25 13 -17 37 -19 391 -24 541 -9 703 -8 923
4 164 9 199 14 221 30 15 10 36 19 47 19 12 0 24 5 27 10 3 6 34 10 69 10 59
0 116 16 116 33 0 4 18 7 39 7 57 0 78 11 149 74 34 31 72 56 83 56 13 0 87
67 205 185 153 155 184 191 184 215 0 23 28 70 60 100 3 3 11 16 18 30 16 34
30 56 75 118 21 28 35 52 32 52 -4 0 3 12 14 26 12 15 21 36 21 48 0 11 16 41
35 65 19 24 35 52 35 62 0 14 7 19 25 19 19 0 25 5 25 23 0 12 9 33 20 47 11
14 20 30 20 36 0 29 107 90 141 81 10 -3 19 -1 19 4 0 5 7 9 15 9 8 0 15 5 15
10 0 6 8 13 18 17 9 3 30 15 47 27 24 17 48 21 150 24 109 4 127 2 194 -22 44
-15 96 -26 127 -26 44 0 56 -4 72 -25 15 -18 29 -25 56 -25 20 0 44 -4 54 -9
9 -6 29 -12 45 -16 15 -3 27 -12 27 -20 0 -11 12 -15 47 -15 32 0 60 -8 91
-26 33 -20 64 -28 114 -32 37 -2 68 -9 68 -13 0 -5 7 -9 15 -9 15 0 55 -19 65
-31 3 -3 42 -11 87 -17 46 -6 94 -19 108 -28 15 -10 34 -14 50 -10 30 8 165
-12 183 -26 6 -6 12 -7 12 -3 0 4 7 1 16 -6 10 -8 38 -12 79 -11 34 2 73 -2
86 -7 13 -5 29 -9 34 -10 6 -1 19 -11 30 -21 24 -23 121 -40 227 -40 101 0
281 -20 289 -32 3 -5 11 -2 18 6 26 31 171 33 171 2 0 -19 124 -25 375 -20
142 3 211 8 216 16 5 7 58 15 136 20 70 4 150 13 178 19 37 9 50 9 53 0 5 -14
39 -15 47 0 5 6 22 8 46 4 27 -5 47 -2 62 8 45 29 151 57 212 55 56 -1 99 12
117 36 4 6 36 11 72 12 49 2 73 8 92 23 15 12 41 21 58 21 17 0 42 9 56 20 14
11 32 20 40 20 8 0 24 7 34 15 11 8 28 15 39 15 10 0 30 9 43 19 14 11 44 23
67 26 23 4 53 16 66 26 13 11 32 19 41 19 10 0 23 7 31 16 8 10 21 13 36 9 19
-4 56 8 73 25 37 37 85 70 103 70 12 1 37 14 56 30 18 15 39 26 46 24 7 -3 40
20 73 50 33 31 64 56 69 56 5 0 38 29 73 65 35 36 73 65 83 65 9 0 32 16 50
35 17 19 37 35 42 35 15 0 95 83 95 98 0 6 11 19 25 28 14 9 25 22 25 29 0 7
9 15 20 18 11 3 20 13 20 24 0 10 24 45 53 78 29 33 61 76 70 95 43 87 64 115
90 118 18 2 24 8 20 18 -10 27 7 105 25 111 26 10 32 24 32 72 0 31 8 56 24
80 20 29 25 50 27 111 1 60 6 81 24 105 18 25 21 39 17 86 -3 36 0 59 7 63 7
5 11 63 11 178 0 142 -3 174 -16 189 -21 24 -44 126 -38 169 5 32 2 40 -36 74
-41 37 -45 38 -93 32 -27 -4 -64 -17 -81 -30 -17 -12 -43 -28 -58 -35 -15 -8
-28 -23 -30 -35 -2 -16 -11 -22 -40 -24 -26 -2 -38 -8 -38 -19 0 -27 -58 -71
-103 -78 -27 -5 -55 -20 -80 -41 -25 -23 -47 -34 -67 -34 -20 0 -33 -6 -37
-17 -9 -24 -23 -33 -55 -33 -17 0 -33 -8 -40 -20 -7 -11 -20 -20 -28 -20 -8 0
-24 -7 -34 -15 -11 -8 -28 -15 -39 -15 -10 0 -30 -9 -44 -20 -14 -11 -39 -20
-55 -20 -18 0 -43 -11 -60 -25 -16 -14 -40 -25 -52 -25 -13 0 -26 -3 -30 -7
-11 -12 -40 -12 -53 -1 -9 7 -13 7 -13 -1 0 -6 -5 -11 -12 -11 -6 0 -22 -10
-35 -22 -15 -14 -37 -22 -70 -23 -47 -2 -71 -10 -123 -40 -36 -21 -110 -30
-132 -16 -26 16 -38 14 -38 -9 0 -16 -7 -20 -32 -20 -31 0 -87 -14 -120 -31
-24 -12 -65 -11 -73 1 -10 16 -79 12 -116 -7 -30 -16 -67 -18 -310 -18 -250 0
-279 2 -296 18 -15 12 -37 17 -86 17 -36 0 -69 -4 -72 -10 -8 -12 -68 -13 -81
-1 -5 5 -58 14 -118 20 -60 6 -116 17 -124 24 -12 9 -16 9 -19 0 -5 -14 -75
-18 -87 -6 -4 4 -25 8 -47 9 -41 2 -65 10 -154 49 -31 14 -62 21 -81 18 -35
-5 -110 25 -137 55 -18 19 -57 20 -57 1 0 -5 -7 -9 -16 -9 -22 0 -114 40 -144
63 -20 15 -34 18 -78 12 -48 -6 -57 -4 -78 16 -20 19 -36 23 -88 24 -35 0 -70
5 -77 11 -8 5 -32 16 -54 23 -22 7 -49 16 -60 21 -11 5 -41 11 -67 15 -26 3
-59 16 -75 28 -22 18 -41 22 -96 22 -61 0 -71 3 -90 25 -20 22 -29 25 -92 25
-72 -1 -107 11 -136 47 -12 16 -28 20 -93 20 -65 1 -83 5 -105 23 -37 30 -58
36 -85 24 -31 -14 -118 4 -153 31 -17 13 -41 20 -69 20 -23 0 -46 4 -49 10 -8
13 -65 13 -65 0 0 -13 -77 -13 -85 -1 -3 5 -20 13 -38 16 -17 4 -50 16 -73 26
-23 10 -51 15 -63 12 -28 -7 -191 17 -191 28 0 10 -65 19 -173 23 -48 2 -93 8
-100 14 -17 14 -299 38 -510 43 -73 2 -111 -1 -119 -9 -7 -7 -37 -12 -68 -12
-35 0 -64 -6 -79 -16 -16 -11 -44 -16 -89 -16 -68 0 -105 -8 -155 -35 -16 -8
-56 -17 -88 -18 -53 -3 -65 -8 -101 -40 -34 -32 -46 -36 -74 -32 -27 5 -34 2
-39 -13 -4 -13 -19 -22 -43 -26 -20 -3 -48 -16 -62 -29 -39 -34 -87 -65 -101
-65 -7 0 -29 -15 -49 -34 -19 -19 -57 -46 -85 -61 -66 -36 -232 -200 -241
-237 -3 -16 -30 -54 -60 -84 -30 -31 -54 -62 -54 -71 0 -26 -20 -53 -40 -53
-22 0 -26 -10 -9 -27 16 -16 2 -83 -19 -90 -27 -10 -31 -23 -25 -93 5 -63 4
-68 -21 -87 -21 -17 -26 -29 -26 -65 0 -25 -3 -48 -7 -52 -4 -4 -6 -26 -4 -50
1 -24 -2 -47 -8 -51 -6 -3 -11 -31 -11 -62 0 -44 -3 -54 -15 -50 -8 4 -17 2
-20 -3 -3 -4 1 -10 7 -13 10 -3 11 -9 1 -26 -7 -11 -13 -47 -13 -78 0 -32 -3
-115 -7 -185 -6 -118 -8 -128 -26 -128 -18 0 -19 -5 -12 -76 6 -71 5 -77 -15
-91 -16 -11 -19 -18 -11 -26 15 -15 14 -39 -4 -73 -8 -16 -15 -37 -15 -46 0
-19 -47 -78 -62 -78 -5 0 -20 -13 -34 -29 -16 -19 -36 -31 -56 -33 -23 -2 -36
-11 -48 -33 -16 -29 -20 -30 -106 -37 -96 -8 -264 0 -264 12 0 4 -19 10 -42
14 -120 17 -146 23 -175 41 -18 11 -33 25 -33 32 0 7 -7 13 -16 13 -9 0 -28 6
-42 14 -15 8 -43 17 -63 20 -23 4 -48 20 -74 46 -24 25 -48 40 -63 40 -16 0
-44 20 -85 62 -49 50 -66 62 -88 60 -21 -3 -37 8 -80 56 -43 47 -62 60 -93 65
-27 4 -52 19 -80 45 -23 22 -54 43 -71 46 -16 4 -48 26 -71 49 -29 29 -48 41
-64 39 -16 -3 -38 13 -82 57 -43 43 -69 61 -87 61 -18 0 -45 18 -87 59 -36 35
-73 61 -92 66 -49 10 -88 33 -116 65 -14 17 -31 30 -38 30 -20 0 -136 77 -151
100 -6 11 -20 20 -30 20 -34 0 -117 61 -117 87 0 10 -4 11 -19 2 -15 -10 -24
-7 -55 16 -24 18 -36 36 -36 51 0 13 -3 23 -7 22 -17 -3 -43 15 -43 30 0 12
-3 13 -12 4 -19 -19 -63 -14 -86 11 -12 13 -22 28 -22 34 0 5 -10 21 -22 34
-17 18 -31 23 -56 21 -41 -4 -79 19 -88 53 -5 20 -12 25 -39 25 -24 0 -40 8
-57 28 -15 18 -31 26 -46 24 -13 -2 -35 5 -50 15 -15 10 -36 22 -47 28 -11 6
-26 23 -33 38 -7 15 -21 27 -31 27 -21 0 -78 27 -86 41 -4 5 -17 9 -31 9 -14
0 -36 11 -50 25 -14 14 -36 25 -50 25 -16 0 -39 13 -60 34 -19 19 -34 30 -34
25 0 -5 -11 -9 -24 -9 -23 0 -66 40 -79 72 -4 10 -7 10 -15 -1 -7 -10 -20 -12
-46 -7 -29 6 -39 14 -50 40 -12 29 -20 34 -60 40 -25 4 -50 14 -54 22 -6 10
-31 18 -70 23 -33 4 -68 14 -78 21 -9 8 -28 13 -41 12 -30 -4 -133 46 -133 65
0 15 -16 17 -25 3 -3 -5 -14 -10 -24 -10 -24 0 -94 35 -111 55 -10 12 -23 15
-50 10 -46 -8 -90 8 -90 34 0 16 -9 20 -52 23 -29 3 -57 1 -63 -4 -17 -15 -72
-8 -96 11 -21 17 -22 22 -11 40 10 18 10 21 -3 21 -8 0 -24 -6 -35 -12 -16
-10 -24 -10 -40 -1 -12 8 -21 9 -25 3 -15 -24 -104 -4 -214 47 -31 14 -35 14
-43 -1 -11 -20 -61 -21 -91 -2 -12 8 -40 17 -61 21 -21 3 -48 13 -60 20 -31
20 -128 36 -144 23 -25 -21 -141 10 -171 46 -13 16 -97 20 -106 6 -8 -12 -72
-13 -79 -1 -3 4 -61 11 -128 15 -101 6 -128 11 -151 27 -26 19 -30 19 -46 5
-26 -24 -61 -21 -61 5 0 19 -4 21 -36 16 -20 -3 -44 -13 -54 -22 -22 -20 -52
-19 -77 3 -15 13 -35 17 -74 15 -30 -1 -93 -2 -140 -3 -72 0 -89 -3 -107 -21
-17 -15 -33 -19 -65 -17 -24 2 -43 8 -43 16 -3 23 -4 24 -16 15 -13 -10 -226
-8 -236 2 -10 10 -22 5 -22 -9 0 -7 -14 -16 -31 -20 -55 -11 -69 -8 -69 16 0
17 -3 19 -12 10 -15 -15 -48 -16 -48 -2 0 6 -15 10 -34 10 -26 0 -35 -5 -39
-21 -5 -19 -12 -20 -94 -18 -96 2 -200 -9 -209 -22 -7 -12 -91 -11 -99 1 -10
16 -150 13 -164 -4 -7 -8 -35 -17 -64 -21 -29 -4 -58 -12 -65 -17 -7 -6 -74
-11 -155 -12 -125 -1 -148 -4 -189 -24 -34 -16 -74 -24 -140 -28 -51 -3 -103
-11 -116 -17 -17 -8 -28 -8 -42 1 -27 16 -85 15 -99 -2 -7 -8 -26 -18 -42 -21
-16 -4 -31 -11 -34 -16 -8 -12 -142 -12 -150 1 -9 15 -25 12 -25 -4 0 -19
-112 -35 -118 -17 -3 8 -12 5 -28 -10 -22 -20 -36 -23 -146 -26 -77 -3 -133
-9 -151 -18 -15 -7 -62 -19 -105 -25 -42 -6 -87 -16 -100 -22 -18 -9 -28 -9
-42 0 -28 17 -130 16 -130 -2 0 -9 -23 -17 -72 -24 -124 -18 -340 -32 -352
-23 -17 13 -226 -21 -253 -41 -17 -14 -953 -11 -1004 2 -23 6 -55 10 -73 9
-17 -2 -36 0 -42 3 -17 11 -209 28 -309 28 -52 0 -97 4 -100 10 -3 6 -25 10
-48 10 -60 0 -209 20 -230 32 -10 5 -60 9 -110 9 -87 0 -158 12 -183 31 -19
14 -148 27 -156 15 -9 -15 -147 11 -180 34 -27 20 -48 25 -48 11 0 -4 -9 -13
-20 -19 -28 -18 -70 0 -70 29 -1 21 -2 22 -14 6 -7 -10 -23 -18 -36 -18 -30 0
-78 29 -83 52 -7 24 -44 23 -59 -2 -17 -27 -67 -26 -102 1 -23 18 -26 19 -26
3 0 -33 -129 -1 -185 46 -8 7 -15 25 -15 41 0 26 3 29 34 29 18 0 39 -7 46
-15 7 -8 17 -12 22 -9 6 4 4 10 -6 16 -21 12 -21 47 2 64 9 7 34 14 55 14 24
0 46 7 59 20 14 12 36 20 58 20 25 0 43 7 56 21 10 12 37 30 59 41 22 12 53
31 68 44 16 13 41 24 56 24 19 0 39 13 66 41 52 54 113 92 136 86 12 -3 19 0
19 9 0 8 6 14 13 14 23 0 97 85 108 124 6 21 8 41 4 44 -3 4 -69 7 -146 8
-127 0 -142 3 -169 22 -26 20 -42 22 -142 22 -117 0 -142 7 -175 50 -18 22
-17 106 2 114 9 3 15 18 15 38 1 54 30 79 100 85 33 3 60 10 60 14 0 8 48 32
75 38 6 1 14 9 18 17 4 8 14 14 21 14 8 0 19 6 25 14 6 8 31 17 56 20 42 7 44
9 47 44 3 36 4 37 54 47 29 6 61 18 71 28 11 9 35 17 55 17 20 0 41 7 48 15 7
8 25 15 40 15 21 0 48 22 124 100 87 90 97 104 94 133 -3 27 -10 36 -55 58
-50 25 -57 26 -323 33 -270 7 -272 7 -277 -14 -5 -20 -11 -20 -257 -20 -138 0
-307 -5 -376 -11 -69 -6 -181 -14 -250 -19 -120 -7 -219 -22 -240 -35 -12 -7
-185 -20 -255 -18 -27 0 -83 3 -124 5 -60 2 -79 0 -97 -14 -20 -16 -48 -18
-266 -18 -148 0 -248 4 -254 10 -5 5 -38 13 -72 16 -53 6 -62 5 -62 -10 0 -18
-38 -22 -68 -8 -9 5 -30 15 -47 23 -21 10 -31 23 -33 42 -3 22 -8 27 -32 27
-19 0 -36 9 -50 27 -18 23 -21 37 -17 88 8 105 40 194 77 217 11 7 20 20 20
28 1 23 25 50 44 50 11 0 16 6 14 18 -3 15 -20 17 -157 20 -96 1 -158 -1 -165
-8 -15 -15 -199 -13 -215 3 -11 10 -14 10 -18 0 -3 -9 -32 -13 -98 -13 -52 0
-97 -4 -100 -10 -3 -5 -19 -10 -34 -10 -15 0 -31 -4 -36 -8 -17 -15 -138 -32
-207 -29 -60 3 -68 1 -68 -15 0 -13 -8 -18 -31 -18 -16 0 -47 -10 -69 -22 -34
-20 -43 -21 -82 -11 -39 11 -45 10 -68 -11 -33 -30 -127 -52 -166 -39 -24 8
-38 5 -79 -17 -27 -15 -63 -30 -80 -34 -16 -4 -37 -9 -46 -12 -9 -2 -25 3 -34
13 -17 16 -18 16 -35 -4 -20 -26 -100 -63 -132 -62 -13 0 -32 4 -43 9 -16 6
-26 2 -46 -23 -25 -28 -31 -30 -100 -32 -63 -1 -80 -6 -114 -29 -29 -20 -50
-26 -77 -25 -25 2 -43 -3 -57 -15 -14 -13 -42 -20 -91 -24 -39 -2 -73 -9 -76
-13 -3 -5 -23 -9 -45 -9 -26 0 -47 -7 -61 -19 -24 -23 -64 -30 -176 -30 -68 0
-87 -4 -109 -20 -33 -26 -146 -30 -180 -6 -18 13 -26 13 -42 4 -15 -10 -24 -9
-45 4 -49 33 -59 69 -53 192 7 127 17 169 40 173 9 2 17 -2 17 -8 0 -10 4 -9
15 0 8 7 15 18 15 25 0 24 50 106 85 138 24 21 37 44 41 69 4 21 13 43 20 49
8 6 14 18 14 25 0 22 -96 18 -134 -5 -17 -10 -47 -22 -66 -26 -19 -4 -45 -16
-58 -26 -13 -10 -44 -21 -70 -25 -26 -4 -59 -15 -74 -25 -14 -11 -31 -19 -37
-19 -6 0 -11 -4 -11 -10 0 -5 -16 -12 -35 -16 -19 -3 -35 -12 -35 -18 0 -24
-102 -47 -115 -27 -10 18 -108 -25 -135 -59 -3 -4 -13 -9 -22 -13 -10 -3 -18
-13 -18 -21 0 -15 -29 -26 -74 -26 -18 0 -35 -9 -48 -25 -13 -17 -29 -25 -50
-25 -20 0 -44 -12 -71 -35 -41 -36 -83 -45 -104 -24 -8 8 -14 5 -22 -10 -7
-12 -20 -21 -29 -21 -10 0 -22 -4 -27 -9 -6 -5 -21 -11 -35 -13 -14 -2 -29
-13 -35 -25 -10 -23 -32 -33 -75 -33 -15 0 -37 -12 -53 -30 -17 -18 -39 -30
-54 -30 -15 0 -33 -10 -45 -25 -15 -20 -28 -25 -64 -25 -38 0 -44 -3 -44 -20
0 -11 -8 -23 -17 -26 -10 -3 -26 -10 -35 -15 -10 -5 -25 -9 -33 -9 -9 0 -24
-8 -35 -18 -22 -20 -80 -28 -90 -12 -4 7 -20 -4 -39 -29 -29 -36 -38 -41 -73
-41 -29 0 -49 -7 -71 -26 -24 -20 -38 -25 -63 -21 -24 4 -33 1 -37 -11 -2 -9
-21 -26 -41 -36 -32 -17 -41 -18 -58 -7 -22 14 -33 8 -52 -31 -9 -19 -22 -24
-68 -29 -35 -4 -67 -14 -83 -28 -21 -16 -42 -21 -87 -21 -42 0 -68 -6 -86 -18
-46 -32 -99 -52 -135 -52 l-34 0 -7 61 c-3 34 -6 97 -6 140 0 69 2 78 20 84
18 6 25 26 22 65 -4 43 18 323 26 333 24 30 35 124 29 249 -5 123 -7 130 -31
149 -18 14 -26 31 -28 61 l-3 41 -25 -32z m12915 -7311 c0 -36 -4 -77 -8 -92
-6 -22 -4 -28 8 -28 24 0 17 -24 -19 -67 -25 -28 -33 -46 -29 -61 7 -28 -22
-72 -47 -72 -24 0 -25 -8 -3 -32 25 -28 7 -70 -35 -82 -35 -10 -43 -39 -20
-76 16 -25 -7 -70 -44 -84 -22 -8 -26 -15 -22 -33 8 -31 -24 -121 -47 -134
-19 -10 -19 -11 -3 -39 16 -26 16 -30 1 -53 -9 -14 -27 -27 -39 -29 -28 -4
-37 -48 -14 -71 9 -9 16 -22 16 -29 -1 -20 -35 -57 -65 -68 -20 -8 -25 -15
-20 -28 21 -49 18 -72 -16 -105 -29 -29 -34 -40 -35 -87 -1 -37 -6 -57 -17
-65 -10 -7 -17 -22 -17 -35 0 -29 -34 -83 -67 -110 -14 -11 -21 -20 -14 -20
19 0 12 -49 -9 -70 -12 -12 -24 -19 -28 -16 -4 2 -13 -2 -20 -10 -7 -8 -9 -14
-5 -14 4 0 2 -5 -5 -12 -7 -7 -12 -24 -12 -40 0 -18 -13 -41 -40 -69 -22 -23
-40 -52 -40 -64 0 -14 -25 -49 -65 -90 -36 -38 -65 -72 -65 -77 0 -5 -7 -16
-15 -24 -8 -9 -15 -24 -15 -34 0 -10 -20 -37 -45 -61 -25 -24 -45 -48 -45 -54
0 -7 -9 -20 -19 -29 -11 -10 -21 -27 -23 -37 -4 -22 -99 -138 -185 -225 -36
-35 -63 -72 -63 -83 0 -11 -26 -49 -59 -83 -32 -35 -62 -74 -66 -87 -4 -13
-19 -36 -34 -50 -14 -14 -37 -39 -49 -56 -13 -16 -55 -62 -93 -101 l-69 -71
-57 6 c-48 5 -60 10 -69 30 -20 39 -38 44 -127 32 -207 -27 -265 -31 -452 -37
-129 -4 -205 -10 -214 -17 -7 -7 -32 -17 -55 -22 -35 -10 -42 -15 -49 -47 -12
-51 -84 -119 -140 -133 -15 -4 -63 -43 -107 -86 -54 -53 -89 -79 -104 -79 -23
0 -51 -22 -41 -32 3 -3 -27 -29 -67 -58 -39 -30 -101 -85 -137 -122 -36 -37
-71 -68 -79 -68 -7 0 -17 -11 -22 -25 -6 -15 -20 -27 -37 -31 -47 -12 -183
-118 -183 -142 0 -5 -42 -39 -92 -77 -51 -38 -95 -72 -98 -76 -3 -4 -28 -24
-56 -45 -28 -22 -64 -54 -79 -71 -32 -39 -62 -43 -75 -8 -5 13 -24 31 -42 38
-41 17 -98 64 -98 81 0 7 -20 22 -44 33 -24 12 -52 34 -63 49 -10 15 -104 113
-208 218 -114 114 -198 207 -209 231 -11 22 -41 67 -68 100 -60 75 -61 98 -8
154 22 23 40 39 40 36 0 -9 57 31 102 71 21 19 60 45 87 59 60 30 114 76 153
130 35 48 146 137 208 166 25 12 52 28 60 35 27 23 102 46 114 34 16 -16 66
-12 66 5 0 20 52 45 95 45 47 0 99 27 160 84 55 51 70 57 62 25 -3 -12 -4 -19
-2 -17 92 84 227 228 231 245 4 13 14 23 23 23 12 0 13 2 3 9 -10 6 -1 24 37
76 28 37 51 72 51 76 0 5 9 9 21 9 15 0 19 5 15 15 -9 24 13 70 44 94 17 12
30 28 30 35 0 8 11 17 24 20 13 3 26 16 30 28 5 22 9 137 4 139 -9 2 -261 21
-348 25 -58 3 -111 11 -119 17 -9 8 -76 12 -205 13 -105 0 -220 4 -256 7 -36
4 -116 12 -178 18 -63 6 -129 17 -148 25 -28 12 -42 12 -74 3 -22 -7 -40 -16
-40 -22 0 -5 -9 -20 -19 -33 -11 -13 -22 -48 -26 -77 -11 -90 -26 -145 -46
-163 -12 -11 -17 -24 -13 -39 4 -15 -3 -37 -20 -64 -14 -22 -26 -50 -26 -60 0
-21 -80 -119 -109 -135 -9 -4 -28 -22 -43 -40 -22 -26 -30 -29 -45 -20 -10 6
-19 21 -21 33 -4 24 -6 25 -31 10 -14 -9 -29 -8 -66 5 -57 19 -87 20 -102 5
-6 -6 -31 -11 -55 -10 -143 4 -175 7 -189 16 -16 10 -39 127 -39 200 0 24 -5
35 -14 35 -19 0 -32 88 -29 196 2 74 1 82 -17 87 -11 3 -20 13 -20 24 -1 10
-2 43 -4 73 -3 67 1 80 24 80 15 0 18 12 22 99 3 81 7 104 23 121 17 19 20 38
21 135 1 61 4 117 8 124 10 16 59 15 50 -1 -4 -7 3 -4 15 7 22 19 41 20 635
25 336 3 618 9 626 12 8 4 111 9 227 11 172 3 216 7 230 19 28 24 110 40 216
43 69 1 102 6 115 17 27 24 80 38 143 38 32 0 60 4 64 9 6 10 120 46 177 56
22 3 39 1 43 -5 9 -15 47 -2 66 22 19 25 96 43 115 28 10 -9 20 -6 41 9 38 28
152 56 173 43 13 -8 27 -3 58 18 29 19 58 29 101 33 41 3 77 15 113 35 68 38
108 48 108 27 0 -8 9 -15 20 -15 11 0 20 6 20 13 0 30 38 49 102 50 49 2 70 7
91 24 32 25 78 37 106 28 12 -3 29 3 47 18 47 39 72 48 110 41 29 -5 38 -3 50
15 22 31 67 51 113 51 31 0 46 6 65 27 19 20 35 27 64 27 22 1 48 8 58 17 41
36 126 66 109 39 -12 -19 12 -10 31 11 24 28 75 49 116 49 18 0 41 9 53 20 27
26 78 41 96 29 18 -11 48 -2 74 21 32 30 73 42 97 29 13 -7 23 -8 27 -1 3 5
29 17 56 25 28 8 75 27 106 41 30 14 91 31 135 38 48 7 92 20 114 34 19 13 44
22 55 21 18 -2 20 -9 20 -67z m-8035 -1304 c26 -48 154 -186 174 -186 15 0
146 -132 146 -148 0 -7 5 -10 10 -7 6 3 10 2 10 -3 0 -9 24 -38 99 -117 22
-24 41 -48 41 -52 0 -13 81 -93 94 -93 14 0 46 -36 46 -51 0 -6 -7 -9 -15 -5
-28 10 -15 -12 30 -55 25 -24 65 -68 88 -97 23 -29 56 -61 74 -72 40 -24 70
-67 55 -82 -7 -7 -5 -16 7 -28 33 -38 41 -50 41 -64 0 -8 5 -18 10 -21 6 -3
10 -14 10 -23 0 -9 9 -28 20 -42 27 -35 27 -80 -1 -80 -15 0 -19 -5 -15 -15 7
-20 -21 -32 -42 -18 -11 7 -21 4 -34 -9 -17 -17 -41 -18 -312 -18 -294 0 -346
5 -346 35 0 12 -10 14 -42 11 -24 -2 -48 1 -55 6 -7 6 -19 6 -31 -1 -27 -14
-82 7 -82 32 0 24 -25 32 -56 19 -30 -14 -69 -1 -96 33 -13 17 -29 25 -51 25
-18 0 -43 9 -57 20 -14 11 -37 20 -52 20 -28 0 -78 52 -78 81 -1 8 -14 30 -30
49 -17 19 -30 42 -30 52 0 9 -9 22 -20 28 -24 13 -43 56 -33 73 4 6 8 18 9 27
1 8 10 35 19 60 10 25 19 72 21 105 3 44 9 64 23 75 11 8 23 32 26 52 4 22 19
47 36 62 20 18 29 36 29 56 0 16 9 37 19 47 12 12 21 35 23 63 2 38 7 47 31
58 21 10 27 20 27 46 0 23 9 41 30 61 24 23 30 36 28 63 -3 38 25 69 40 45 6
-9 24 -11 60 -6 43 5 52 9 52 25 0 32 23 15 50 -36z"/>
<path d="M14370 3080 c0 -5 5 -10 10 -10 6 0 10 5 10 10 0 6 -4 10 -10 10 -5
0 -10 -4 -10 -10z"/>
<path d="M11235 4740 c3 -5 8 -10 11 -10 2 0 4 5 4 10 0 6 -5 10 -11 10 -5 0
-7 -4 -4 -10z"/>
</g>
</svg>
