<svg xmlns="http://www.w3.org/2000/svg" xmlns:v="https://svgstorm.com"
viewBox = "0 0 1920 1080"
width="1920"
height="1080">
<g fill="None" fill-opacity="0.0" stroke="#000000" stroke-opacity="0.00" stroke-width="0.3"><path d="
M 0.00 1080.00 
L 1920.00 1080.00
L 1920.00 0.00
L 0.00 0.00
L 0.00 1080.00
M 369.00 21.00 
C 377.16 39.08 365.58 60.30 368.00 79.00
C 378.30 78.26 388.09 71.09 397.00 71.00
C 402.06 65.23 408.44 65.99 416.00 62.00 C 423.56 58.01 430.20 55.22 437.67 51.67 C 445.15 48.12 452.58 44.76 459.75 40.75 C 466.93 36.75 474.01 35.06 481.10 32.10 C 488.19 29.14 497.70 24.23 506.00 24.00
C 505.05 30.47 500.19 38.43 495.00 41.00
C 488.29 55.35 500.75 60.94 511.08 57.08 C 521.40 53.21 530.99 56.52 540.08 51.94 C 549.18 47.35 558.89 48.45 566.00 42.00
C 574.32 44.18 582.04 39.81 591.08 37.94 C 600.13 36.06 610.43 33.16 621.01 32.01 C 631.59 30.85 644.60 31.72 656.00 31.00
C 656.44 34.49 651.26 35.08 654.00 39.00
C 649.25 37.71 650.03 41.50 648.07 46.07 C 646.12 50.64 652.10 54.08 653.00 57.00
C 663.05 57.23 676.29 59.18 687.00 58.00 C 697.71 56.82 706.68 57.82 717.00 56.00 C 727.32 54.18 738.11 52.73 748.01 53.01 C 757.91 53.29 771.35 51.62 781.00 51.00 C 790.65 50.38 809.76 50.46 803.25 61.25 C 796.73 72.04 784.67 67.24 781.00 77.00
C 776.11 78.97 756.20 82.59 760.01 92.01 C 763.82 101.42 785.83 94.46 793.00 100.00
C 789.22 107.48 783.69 110.45 776.75 114.75 C 769.82 119.06 761.49 124.15 754.00 124.00
C 755.38 128.40 754.49 129.35 750.00 128.00
C 753.60 135.08 762.78 133.09 769.00 132.00
C 774.58 135.90 781.68 135.61 789.74 137.60 C 797.80 139.59 804.51 137.59 813.22 139.78 C 821.93 141.97 835.01 141.65 844.00 143.00 C 852.99 144.35 863.18 145.59 873.00 145.00 C 882.82 144.41 894.51 146.64 904.07 144.07 C 913.63 141.51 923.08 143.17 932.67 141.67 C 942.26 140.17 950.47 138.27 960.01 137.01 C 969.54 135.75 974.51 134.98 984.00 134.00 C 993.49 133.02 1003.84 130.57 1012.74 128.74 C 1021.64 126.92 1031.76 127.63 1041.00 126.00 C 1050.24 124.37 1061.00 124.96 1068.69 123.65 C 1076.39 122.33 1082.81 125.86 1091.03 124.97 C 1099.25 124.07 1110.04 122.66 1118.00 122.00
C 1120.72 123.28 1127.37 127.57 1134.00 126.00 C 1140.64 124.42 1146.90 128.66 1153.02 128.98 C 1159.15 129.30 1165.44 130.76 1171.67 131.67 C 1177.90 132.57 1185.14 135.51 1192.00 133.00
C 1190.43 138.97 1198.96 135.76 1202.29 138.71 C 1205.63 141.65 1212.29 140.15 1216.08 142.07 C 1219.86 143.99 1223.98 147.07 1228.23 147.77 C 1232.48 148.47 1238.96 149.10 1241.00 154.00
C 1244.03 152.15 1245.60 154.30 1247.00 157.00
C 1256.88 156.45 1265.44 169.12 1275.00 169.00
C 1276.67 173.00 1282.68 177.04 1287.00 176.00
C 1288.20 179.67 1290.87 183.31 1295.00 181.00
C 1295.75 183.52 1298.94 185.12 1300.00 188.00
C 1302.87 187.24 1309.59 192.22 1314.08 195.92 C 1318.58 199.62 1325.96 202.39 1330.70 206.30 C 1335.44 210.21 1340.98 212.71 1345.75 216.25 C 1350.52 219.79 1355.83 223.40 1361.25 226.75 C 1366.66 230.10 1370.14 233.13 1376.22 236.78 C 1382.30 240.42 1387.08 243.80 1394.22 245.78 C 1401.36 247.76 1410.33 247.99 1418.00 247.00
C 1420.07 243.20 1427.27 240.87 1427.99 234.99 C 1428.71 229.12 1429.30 225.01 1430.99 218.99 C 1432.69 212.97 1429.89 205.15 1432.40 200.25 C 1434.90 195.34 1433.54 186.50 1438.00 183.00
C 1438.67 180.06 1436.91 177.82 1437.00 175.00
C 1440.61 175.01 1441.82 171.08 1439.00 169.00
C 1446.75 162.70 1450.92 152.71 1461.08 146.08 C 1471.23 139.44 1477.25 134.79 1488.08 131.93 C 1498.90 129.07 1513.20 124.97 1526.00 126.00 C 1538.80 127.03 1551.30 129.42 1563.22 131.78 C 1575.15 134.13 1587.25 134.72 1599.00 136.00
C 1605.68 143.17 1618.24 138.59 1624.00 146.00
C 1631.99 143.90 1640.86 150.57 1649.00 151.00 C 1657.14 151.42 1663.24 158.20 1671.00 155.00
C 1678.18 161.11 1690.60 163.15 1701.07 163.93 C 1711.55 164.71 1727.81 167.15 1738.00 167.00 C 1748.19 166.85 1758.58 164.37 1768.01 163.01 C 1777.44 161.64 1785.33 157.87 1794.70 155.69 C 1804.06 153.52 1812.35 145.15 1820.25 143.25 C 1828.14 141.34 1837.45 125.80 1845.25 131.76 C 1853.04 137.71 1850.60 155.38 1850.07 165.07 C 1849.55 174.77 1844.19 187.28 1843.00 196.00
C 1836.44 199.63 1832.65 209.37 1826.25 215.25 C 1819.84 221.12 1814.44 227.06 1807.25 232.25 C 1800.05 237.44 1794.63 241.17 1786.75 243.80 C 1778.87 246.44 1769.60 252.43 1761.70 254.70 C 1753.81 256.98 1744.09 257.73 1735.00 260.00 C 1725.91 262.27 1714.50 261.49 1704.00 263.00 C 1693.50 264.51 1683.02 262.06 1673.77 262.77 C 1664.53 263.48 1652.13 259.50 1643.32 257.68 C 1634.52 255.86 1625.09 254.46 1616.00 253.00 C 1606.91 251.54 1598.62 245.74 1590.75 244.25 C 1582.88 242.75 1569.70 236.07 1561.00 238.00 C 1552.30 239.93 1542.93 244.87 1542.00 254.00
C 1537.40 253.08 1534.34 263.36 1530.25 269.25 C 1526.15 275.14 1523.13 282.97 1516.75 287.75 C 1510.37 292.54 1507.43 299.57 1499.75 302.75 C 1492.07 305.94 1485.18 308.08 1476.92 309.92 C 1468.67 311.77 1459.08 310.41 1450.00 311.00 C 1440.92 311.59 1431.79 310.85 1423.00 311.00 C 1414.21 311.15 1408.37 311.50 1401.08 308.91 C 1393.80 306.33 1382.17 309.13 1373.99 309.99 C 1365.81 310.86 1357.50 313.61 1352.25 320.25 C 1347.00 326.89 1341.22 332.44 1341.00 341.00
C 1336.70 342.27 1333.69 346.85 1336.00 351.00
C 1328.90 350.53 1330.06 365.48 1323.75 370.75 C 1317.45 376.02 1316.25 385.80 1309.75 390.75 C 1303.24 395.69 1299.34 402.66 1293.74 408.74 C 1288.15 414.83 1284.87 422.55 1278.25 427.25 C 1271.62 431.95 1266.85 438.96 1259.77 442.77 C 1252.69 446.58 1248.12 453.92 1241.30 458.30 C 1234.48 462.68 1228.60 468.93 1221.75 472.75 C 1214.90 476.58 1207.83 480.12 1200.99 483.99 C 1194.15 487.86 1185.61 491.63 1178.30 495.30 C 1171.00 498.98 1161.75 501.73 1154.77 505.77 C 1147.79 509.81 1137.61 512.42 1131.25 516.25 C 1124.90 520.09 1120.56 525.53 1113.75 530.75 C 1106.95 535.97 1103.15 542.33 1097.25 548.25 C 1091.35 554.16 1085.70 559.54 1082.08 567.08 C 1078.45 574.61 1073.45 581.25 1070.07 589.07 C 1066.69 596.90 1059.85 603.20 1051.97 601.03 C 1044.09 598.86 1033.66 597.48 1025.98 595.02 C 1018.29 592.57 1009.52 590.01 1000.92 588.08 C 992.33 586.14 982.62 587.32 974.26 585.40 C 965.90 583.48 958.74 583.26 949.00 583.00
C 945.74 587.79 938.54 585.32 932.98 588.02 C 927.41 590.73 919.94 594.88 913.99 596.99 C 908.04 599.10 901.82 605.93 896.00 605.00
C 894.04 613.53 880.81 609.80 881.00 618.00
C 877.38 612.25 875.16 621.93 869.00 621.00
C 869.50 636.50 894.59 644.65 905.00 633.00
C 908.47 634.36 912.50 634.30 916.00 633.00
C 922.46 644.94 932.23 655.63 941.30 666.70 C 950.37 677.76 960.07 687.78 969.00 698.00
C 960.00 704.20 947.63 701.77 936.00 702.00 C 924.37 702.23 911.34 702.47 900.00 701.00
C 882.64 672.74 839.12 689.48 823.00 658.00
C 810.69 660.50 807.95 675.35 794.98 677.98 C 782.00 680.60 769.53 663.99 758.00 676.00
C 756.62 683.33 753.30 690.18 753.00 699.00
C 738.83 698.81 726.90 701.45 714.00 702.00 C 701.10 702.55 684.41 702.79 672.00 700.00 C 659.59 697.21 672.93 680.62 679.97 674.97 C 687.01 669.32 692.43 657.45 701.70 652.70 C 710.96 647.95 732.74 650.72 744.00 650.00
C 755.57 639.45 768.25 626.62 780.00 619.00
C 773.10 609.73 762.70 607.01 754.25 599.75 C 745.80 592.48 732.21 591.13 724.00 585.00
C 717.37 589.94 711.56 580.47 704.92 580.08 C 698.27 579.69 693.60 573.96 687.00 572.00
C 687.56 567.78 683.28 565.23 684.00 561.00
C 668.78 560.89 648.64 563.09 633.99 562.99 C 619.35 562.89 605.20 565.15 589.00 564.00 C 572.80 562.85 554.29 565.98 539.33 565.67 C 524.37 565.36 521.95 547.12 509.00 547.00
C 508.13 540.47 499.30 536.91 500.00 530.00 C 500.71 523.09 505.56 518.20 504.00 512.00
C 510.43 506.92 512.71 497.89 516.33 490.33 C 519.94 482.77 524.58 475.70 524.00 468.00
C 529.94 460.95 532.62 448.92 534.78 437.78 C 536.93 426.63 539.27 411.89 541.67 401.33 C 544.06 390.77 547.17 374.07 535.00 370.00
C 536.65 366.80 536.20 362.72 532.00 362.00
C 534.08 352.60 524.96 343.80 528.00 333.00
C 521.32 325.48 513.01 319.64 504.75 312.25 C 496.50 304.86 488.80 297.98 482.00 291.00
C 474.69 289.82 469.01 281.84 462.25 277.75 C 455.48 273.66 447.96 266.54 441.00 267.00
C 443.23 259.93 434.00 265.19 435.00 260.00
C 431.83 260.07 428.98 261.73 430.00 257.00
C 426.17 257.23 422.58 259.31 422.00 254.00
C 414.82 252.85 403.48 253.79 398.00 249.00
C 389.86 249.02 384.25 252.40 377.00 252.00
C 374.13 258.15 364.37 255.89 362.00 263.00
C 359.45 258.50 356.48 262.33 352.97 263.97 C 349.47 265.61 341.72 264.64 342.00 270.00
C 339.02 268.69 332.59 266.21 333.00 272.00
C 326.33 269.73 322.33 273.58 316.77 274.21 C 311.21 274.85 304.57 278.90 298.92 279.92 C 293.27 280.94 288.03 282.16 283.75 285.19 C 279.46 288.21 272.75 289.52 267.77 292.77 C 262.79 296.02 258.20 299.34 252.75 301.75 C 247.31 304.17 243.62 309.06 238.71 311.71 C 233.79 314.35 229.82 318.90 225.70 322.70 C 221.58 326.50 217.32 330.08 213.25 334.25 C 209.19 338.43 207.46 344.44 203.67 348.67 C 199.89 352.91 195.18 354.30 190.25 359.25 C 185.32 364.19 177.21 362.02 170.00 363.00 C 162.79 363.98 156.83 360.92 150.78 360.22 C 144.73 359.52 139.15 356.64 135.25 351.75 C 131.34 346.87 128.57 342.66 125.08 337.92 C 121.60 333.18 123.28 321.72 118.00 322.00
C 118.98 319.87 120.01 314.23 116.00 317.00
C 110.47 302.19 119.32 286.02 129.30 277.30 C 139.29 268.59 146.43 258.83 155.78 249.78 C 165.12 240.72 175.48 232.14 181.75 220.75 C 188.02 209.36 196.87 198.09 204.25 187.25 C 211.62 176.41 214.68 162.40 225.75 153.75 C 236.83 145.10 243.78 134.44 252.75 124.75 C 261.73 115.06 270.55 105.72 281.25 98.25 C 291.95 90.77 303.85 84.27 311.77 72.77 C 319.69 61.27 326.05 52.27 336.75 42.75 C 347.45 33.23 355.87 26.08 369.00 21.00
M 766.00 919.00 
C 761.88 927.70 756.98 939.23 747.00 942.00
C 736.57 932.40 720.66 932.68 705.00 931.00 C 689.34 929.32 671.56 940.89 679.00 958.00
C 680.72 952.38 682.39 959.19 683.00 962.00
C 696.04 966.77 711.08 967.90 725.22 970.78 C 739.36 973.66 750.42 974.63 762.75 985.25 C 775.08 995.86 771.70 1013.15 773.00 1027.00
C 769.01 1030.80 766.39 1039.81 760.30 1044.30 C 754.21 1048.80 749.13 1054.32 740.77 1054.77 C 732.41 1055.22 724.01 1058.49 716.00 1058.00 C 707.98 1057.51 699.12 1059.03 690.98 1057.02 C 682.84 1055.02 675.75 1056.17 667.93 1052.07 C 660.10 1047.98 654.92 1048.05 646.78 1043.22 C 638.63 1038.40 648.49 1033.35 651.19 1026.75 C 653.90 1020.16 663.17 1019.97 669.22 1025.78 C 675.28 1031.58 684.28 1030.69 692.01 1032.99 C 699.74 1035.29 709.45 1032.25 718.00 1033.00 C 726.55 1033.75 735.13 1033.20 740.25 1027.25 C 745.37 1021.29 747.75 1011.65 742.25 1004.75 C 736.74 997.86 729.93 996.80 721.92 995.08 C 713.92 993.36 704.70 993.37 696.97 991.98 C 689.25 990.59 680.84 988.34 673.78 985.22 C 666.72 982.10 660.61 977.98 655.89 972.11 C 651.17 966.23 651.30 958.00 650.00 950.00 C 648.71 942.00 652.76 932.34 656.30 926.30 C 659.84 920.25 664.65 914.32 672.03 912.03 C 679.40 909.74 686.61 907.13 695.01 907.01 C 703.40 906.89 713.49 906.79 722.00 906.00 C 730.51 905.21 735.47 909.97 743.25 910.76 C 751.02 911.54 758.42 916.93 766.00 919.00
M 1808.00 988.00 
C 1808.01 983.72 1804.30 975.01 1809.00 972.00
C 1814.31 968.60 1823.06 973.42 1830.00 972.00 C 1836.94 970.58 1846.55 972.74 1854.00 972.00 C 1861.45 971.26 1870.41 972.56 1878.00 972.00
C 1877.42 998.19 1881.12 1030.63 1857.25 1046.25 C 1833.37 1061.87 1803.37 1058.58 1776.00 1055.00
C 1773.49 1050.93 1764.25 1050.68 1759.25 1045.75 C 1754.25 1040.82 1750.45 1034.63 1744.00 1032.00
C 1741.78 1024.18 1739.23 1015.97 1737.01 1006.99 C 1734.79 998.01 1735.33 986.42 1735.00 976.00 C 1734.67 965.58 1737.56 956.37 1740.32 947.32 C 1743.09 938.27 1747.58 931.77 1754.04 926.04 C 1760.49 920.30 1765.99 915.12 1774.25 912.25 C 1782.50 909.37 1793.61 906.97 1802.00 907.00 C 1810.40 907.03 1821.79 905.25 1829.70 907.31 C 1837.61 909.37 1845.60 911.67 1853.07 914.93 C 1860.54 918.18 1869.99 925.79 1863.25 931.25 C 1856.52 936.72 1852.65 948.91 1844.26 942.74 C 1835.87 936.58 1829.09 933.67 1820.00 934.00 C 1810.90 934.32 1802.32 932.20 1793.33 933.33 C 1784.33 934.46 1777.66 940.64 1772.08 947.08 C 1766.50 953.52 1765.15 963.84 1763.01 972.01 C 1760.86 980.18 1762.07 993.30 1764.32 1001.68 C 1766.57 1010.05 1768.37 1015.42 1773.75 1022.25 C 1779.13 1029.09 1787.71 1031.65 1796.00 1033.00 C 1804.30 1034.35 1814.69 1033.26 1824.07 1033.07 C 1833.46 1032.89 1839.64 1028.33 1844.90 1020.90 C 1850.17 1013.47 1849.07 1003.57 1850.00 995.00
C 1835.67 995.00 1821.33 995.00 1807.00 995.00
C 1807.52 992.80 1805.86 989.38 1808.00 988.00
M 1244.00 908.00 
C 1247.56 911.95 1245.68 918.74 1249.33 922.67 C 1252.97 926.61 1250.92 933.08 1257.00 933.00
C 1252.83 939.78 1261.37 947.71 1262.77 955.23 C 1264.17 962.75 1268.87 969.28 1271.92 977.08 C 1274.98 984.87 1277.00 993.76 1280.78 1001.22 C 1284.55 1008.68 1285.58 1019.18 1292.00 1023.00
C 1288.69 1024.39 1291.13 1027.32 1291.00 1030.00
C 1295.86 1030.53 1294.70 1038.90 1297.31 1042.69 C 1299.91 1046.49 1302.82 1051.61 1301.00 1056.00
C 1291.12 1052.58 1280.61 1058.76 1272.00 1054.00
C 1272.66 1051.64 1273.13 1046.21 1269.00 1047.00
C 1271.35 1040.82 1264.80 1036.87 1266.00 1031.00
C 1242.51 1028.73 1216.22 1029.77 1192.00 1031.00
C 1194.21 1038.76 1187.03 1039.98 1186.30 1046.30 C 1185.57 1052.62 1183.15 1057.26 1175.78 1055.78 C 1168.41 1054.29 1164.17 1057.44 1157.00 1055.00
C 1164.76 1031.02 1177.52 1008.21 1184.00 983.00
C 1190.36 980.50 1189.24 970.01 1192.00 963.00
C 1196.68 963.99 1194.64 958.36 1194.00 956.00
C 1199.41 954.29 1199.16 944.98 1202.70 940.70 C 1206.25 936.43 1202.54 927.92 1210.00 926.00
C 1207.78 920.94 1213.74 913.32 1216.00 907.00
C 1224.84 909.28 1234.75 907.37 1244.00 908.00
M 176.00 1053.00 
C 172.22 1047.55 175.69 1035.28 175.00 1028.00 C 174.31 1020.72 176.50 1010.48 176.00 1003.00
C 174.97 999.51 174.45 983.99 175.00 979.00 C 175.55 974.01 176.99 956.21 171.77 958.79 C 166.55 961.37 167.23 975.51 163.25 980.25 C 159.26 984.98 160.90 995.09 156.70 1000.70 C 152.49 1006.30 149.73 1013.78 147.25 1020.25 C 144.76 1026.71 139.37 1034.81 142.00 1041.00
C 136.94 1039.53 136.21 1044.72 138.00 1048.00
C 133.57 1046.91 135.36 1052.48 135.00 1055.00
C 128.66 1054.63 110.64 1058.52 108.08 1049.92 C 105.52 1041.32 101.79 1033.99 99.34 1026.32 C 96.89 1018.66 93.67 1013.47 90.03 1004.98 C 86.38 996.48 83.99 988.04 80.01 979.99 C 76.03 971.95 74.42 962.73 69.00 956.00
C 67.90 988.34 68.94 1021.71 69.00 1055.00
C 54.30 1058.15 40.93 1057.46 43.00 1041.00 C 45.07 1024.54 42.10 1011.56 43.00 996.00 C 43.90 980.44 42.73 967.11 43.00 952.00 C 43.27 936.89 43.60 922.56 42.00 908.00
C 54.17 910.31 67.42 908.35 80.00 909.00
C 81.67 917.03 87.13 923.89 87.00 931.00
C 92.08 934.94 92.42 942.24 94.99 949.01 C 97.57 955.78 101.98 962.21 104.75 968.25 C 107.51 974.30 108.50 981.09 110.93 988.07 C 113.35 995.05 117.98 1001.70 119.00 1009.00
C 121.97 1007.89 123.41 1010.90 126.00 1011.00
C 127.07 1003.32 131.48 997.05 133.78 989.78 C 136.08 982.51 139.32 975.36 142.75 968.75 C 146.19 962.15 146.37 951.33 152.00 948.00
C 151.34 940.72 155.57 936.33 157.93 929.93 C 160.29 923.52 161.97 919.46 164.92 912.92 C 167.88 906.39 178.54 909.62 185.00 909.00 C 191.46 908.38 203.96 907.23 202.99 916.01 C 202.02 924.78 201.92 930.58 202.00 939.00 C 202.08 947.42 202.01 954.90 202.00 963.00 C 201.99 971.10 202.11 979.16 202.00 987.00 C 201.89 994.84 202.27 1004.59 202.00 1012.00 C 201.73 1019.41 202.63 1029.63 202.00 1036.00 C 201.37 1042.37 205.03 1055.68 198.32 1055.66 C 191.61 1055.64 180.56 1055.93 176.00 1053.00
M 390.00 909.00 
C 389.76 931.01 390.32 957.43 390.00 979.00 C 389.68 1000.57 388.96 1020.19 408.00 1032.00
C 414.65 1029.60 426.17 1035.16 435.00 1033.00 C 443.83 1030.84 448.65 1032.34 456.74 1026.74 C 464.84 1021.14 464.58 1012.21 466.00 1003.00 C 467.42 993.79 466.46 982.82 466.00 973.00 C 465.54 963.18 465.50 951.08 466.00 941.00 C 466.50 930.92 467.71 919.52 467.00 909.00
C 475.67 909.00 484.33 909.00 493.00 909.00
C 495.32 935.50 492.70 968.81 494.00 995.00 C 495.30 1021.19 488.02 1043.17 464.78 1052.78 C 441.54 1062.39 417.00 1056.71 395.00 1056.00
C 389.72 1049.90 381.17 1050.28 374.75 1042.25 C 368.33 1034.21 365.51 1027.76 363.67 1017.33 C 361.83 1006.90 361.81 993.56 362.00 982.00 C 362.19 970.44 361.90 957.88 362.00 946.00 C 362.10 934.12 361.93 921.00 362.00 909.00
C 370.60 909.37 380.73 908.74 390.00 909.00
M 987.00 1055.00 
C 983.97 1057.94 978.71 1054.35 975.32 1055.34 C 971.93 1056.32 964.41 1056.68 962.00 1055.00
C 959.87 1055.31 961.25 1039.67 961.00 1037.00
C 957.64 1021.32 962.80 1001.84 961.00 985.00 C 959.20 968.16 960.39 950.28 960.00 934.00
C 942.67 934.00 925.33 934.00 908.00 934.00
C 908.44 926.38 907.70 917.28 908.00 909.00
C 918.52 909.01 928.42 908.99 939.00 909.00 C 949.58 909.01 960.31 908.98 971.00 909.00 C 981.69 909.02 992.19 908.95 1003.00 909.00 C 1013.81 909.05 1023.97 908.90 1035.00 909.00 C 1046.03 909.10 1039.22 926.54 1040.00 934.00
C 1031.33 934.62 1019.34 933.18 1011.00 934.00 C 1002.66 934.82 988.16 929.91 988.00 940.00 C 987.84 950.09 988.12 959.17 988.00 969.00 C 987.88 978.83 988.15 988.33 988.00 998.00 C 987.85 1007.67 988.28 1017.48 988.00 1027.00 C 987.72 1036.52 989.04 1046.39 987.00 1055.00
M 1582.00 1054.00 
C 1580.20 1057.64 1560.55 1056.68 1557.00 1055.00
C 1549.29 1051.35 1543.77 1037.99 1537.25 1030.75 C 1530.72 1023.52 1525.97 1012.01 1519.25 1004.75 C 1512.53 997.50 1506.54 987.73 1500.70 979.31 C 1494.85 970.88 1487.50 962.19 1482.00 953.00
C 1476.10 961.65 1479.72 973.91 1479.00 985.00 C 1478.28 996.09 1479.38 1008.63 1479.00 1020.00 C 1478.62 1031.37 1479.28 1043.56 1479.00 1055.00
C 1470.74 1057.55 1467.72 1053.91 1458.93 1055.07 C 1450.14 1056.24 1451.53 1047.01 1451.98 1038.98 C 1452.42 1030.94 1450.24 1021.62 1451.00 1013.00 C 1451.76 1004.38 1450.59 994.75 1451.00 986.00 C 1451.41 977.26 1450.67 967.70 1451.00 959.00 C 1451.33 950.30 1450.38 940.70 1451.33 932.33 C 1452.28 923.96 1450.96 917.07 1451.00 909.00
C 1460.77 910.11 1479.41 905.50 1485.30 913.70 C 1491.20 921.89 1496.30 928.87 1502.70 936.30 C 1509.10 943.72 1512.59 951.83 1518.92 959.08 C 1525.25 966.33 1529.60 974.96 1535.30 982.70 C 1541.01 990.43 1545.92 998.12 1552.00 1006.00
C 1557.24 997.73 1554.06 987.67 1555.00 977.00 C 1555.94 966.33 1554.51 953.99 1555.00 943.00 C 1555.49 932.01 1554.63 920.07 1555.00 909.00
C 1564.00 909.00 1573.00 909.00 1582.00 909.00
C 1582.00 957.34 1582.00 1005.67 1582.00 1054.00 Z"/>
</g>
<g fill="None" fill-opacity="0.0" stroke="#23201F" stroke-opacity="1.00" stroke-width="0.3"><path d="
M 369.00 21.00 
C 355.87 26.08 347.45 33.23 336.75 42.75 C 326.05 52.27 319.69 61.27 311.77 72.77 C 303.85 84.27 291.95 90.77 281.25 98.25 C 270.55 105.72 261.73 115.06 252.75 124.75 C 243.78 134.44 236.83 145.10 225.75 153.75 C 214.68 162.40 211.62 176.41 204.25 187.25 C 196.87 198.09 188.02 209.36 181.75 220.75 C 175.48 232.14 165.12 240.72 155.78 249.78 C 146.43 258.83 139.29 268.59 129.30 277.30 C 119.32 286.02 110.47 302.19 116.00 317.00
C 120.01 314.23 118.98 319.87 118.00 322.00
C 123.28 321.72 121.60 333.18 125.08 337.92 C 128.57 342.66 131.34 346.87 135.25 351.75 C 139.15 356.64 144.73 359.52 150.78 360.22 C 156.83 360.92 162.79 363.98 170.00 363.00 C 177.21 362.02 185.32 364.19 190.25 359.25 C 195.18 354.30 199.89 352.91 203.67 348.67 C 207.46 344.44 209.19 338.43 213.25 334.25 C 217.32 330.08 221.58 326.50 225.70 322.70 C 229.82 318.90 233.79 314.35 238.71 311.71 C 243.62 309.06 247.31 304.17 252.75 301.75 C 258.20 299.34 262.79 296.02 267.77 292.77 C 272.75 289.52 279.46 288.21 283.75 285.19 C 288.03 282.16 293.27 280.94 298.92 279.92 C 304.57 278.90 311.21 274.85 316.77 274.21 C 322.33 273.58 326.33 269.73 333.00 272.00
C 332.59 266.21 339.02 268.69 342.00 270.00
C 341.72 264.64 349.47 265.61 352.97 263.97 C 356.48 262.33 359.45 258.50 362.00 263.00
C 364.37 255.89 374.13 258.15 377.00 252.00
C 384.25 252.40 389.86 249.02 398.00 249.00
C 403.48 253.79 414.82 252.85 422.00 254.00
C 422.58 259.31 426.17 257.23 430.00 257.00
C 428.98 261.73 431.83 260.07 435.00 260.00
C 434.00 265.19 443.23 259.93 441.00 267.00
C 447.96 266.54 455.48 273.66 462.25 277.75 C 469.01 281.84 474.69 289.82 482.00 291.00
C 488.80 297.98 496.50 304.86 504.75 312.25 C 513.01 319.64 521.32 325.48 528.00 333.00
C 524.96 343.80 534.08 352.60 532.00 362.00
C 536.20 362.72 536.65 366.80 535.00 370.00
C 547.17 374.07 544.06 390.77 541.67 401.33 C 539.27 411.89 536.93 426.63 534.78 437.78 C 532.62 448.92 529.94 460.95 524.00 468.00
C 524.58 475.70 519.94 482.77 516.33 490.33 C 512.71 497.89 510.43 506.92 504.00 512.00
C 505.56 518.20 500.71 523.09 500.00 530.00 C 499.30 536.91 508.13 540.47 509.00 547.00
C 521.95 547.12 524.37 565.36 539.33 565.67 C 554.29 565.98 572.80 562.85 589.00 564.00 C 605.20 565.15 619.35 562.89 633.99 562.99 C 648.64 563.09 668.78 560.89 684.00 561.00
C 683.28 565.23 687.56 567.78 687.00 572.00
C 693.60 573.96 698.27 579.69 704.92 580.08 C 711.56 580.47 717.37 589.94 724.00 585.00
C 732.21 591.13 745.80 592.48 754.25 599.75 C 762.70 607.01 773.10 609.73 780.00 619.00
C 768.25 626.62 755.57 639.45 744.00 650.00
C 732.74 650.72 710.96 647.95 701.70 652.70 C 692.43 657.45 687.01 669.32 679.97 674.97 C 672.93 680.62 659.59 697.21 672.00 700.00 C 684.41 702.79 701.10 702.55 714.00 702.00 C 726.90 701.45 738.83 698.81 753.00 699.00
C 753.30 690.18 756.62 683.33 758.00 676.00
C 769.53 663.99 782.00 680.60 794.98 677.98 C 807.95 675.35 810.69 660.50 823.00 658.00
C 839.12 689.48 882.64 672.74 900.00 701.00
C 911.34 702.47 924.37 702.23 936.00 702.00 C 947.63 701.77 960.00 704.20 969.00 698.00
C 960.07 687.78 950.37 677.76 941.30 666.70 C 932.23 655.63 922.46 644.94 916.00 633.00
C 912.50 634.30 908.47 634.36 905.00 633.00
C 894.59 644.65 869.50 636.50 869.00 621.00
C 875.16 621.93 877.38 612.25 881.00 618.00
C 880.81 609.80 894.04 613.53 896.00 605.00
C 901.82 605.93 908.04 599.10 913.99 596.99 C 919.94 594.88 927.41 590.73 932.98 588.02 C 938.54 585.32 945.74 587.79 949.00 583.00
C 958.74 583.26 965.90 583.48 974.26 585.40 C 982.62 587.32 992.33 586.14 1000.92 588.08 C 1009.52 590.01 1018.29 592.57 1025.98 595.02 C 1033.66 597.48 1044.09 598.86 1051.97 601.03 C 1059.85 603.20 1066.69 596.90 1070.07 589.07 C 1073.45 581.25 1078.45 574.61 1082.08 567.08 C 1085.70 559.54 1091.35 554.16 1097.25 548.25 C 1103.15 542.33 1106.95 535.97 1113.75 530.75 C 1120.56 525.53 1124.90 520.09 1131.25 516.25 C 1137.61 512.42 1147.79 509.81 1154.77 505.77 C 1161.75 501.73 1171.00 498.98 1178.30 495.30 C 1185.61 491.63 1194.15 487.86 1200.99 483.99 C 1207.83 480.12 1214.90 476.58 1221.75 472.75 C 1228.60 468.93 1234.48 462.68 1241.30 458.30 C 1248.12 453.92 1252.69 446.58 1259.77 442.77 C 1266.85 438.96 1271.62 431.95 1278.25 427.25 C 1284.87 422.55 1288.15 414.83 1293.74 408.74 C 1299.34 402.66 1303.24 395.69 1309.75 390.75 C 1316.25 385.80 1317.45 376.02 1323.75 370.75 C 1330.06 365.48 1328.90 350.53 1336.00 351.00
C 1333.69 346.85 1336.70 342.27 1341.00 341.00
C 1341.22 332.44 1347.00 326.89 1352.25 320.25 C 1357.50 313.61 1365.81 310.86 1373.99 309.99 C 1382.17 309.13 1393.80 306.33 1401.08 308.91 C 1408.37 311.50 1414.21 311.15 1423.00 311.00 C 1431.79 310.85 1440.92 311.59 1450.00 311.00 C 1459.08 310.41 1468.67 311.77 1476.92 309.92 C 1485.18 308.08 1492.07 305.94 1499.75 302.75 C 1507.43 299.57 1510.37 292.54 1516.75 287.75 C 1523.13 282.97 1526.15 275.14 1530.25 269.25 C 1534.34 263.36 1537.40 253.08 1542.00 254.00
C 1542.93 244.87 1552.30 239.93 1561.00 238.00 C 1569.70 236.07 1582.88 242.75 1590.75 244.25 C 1598.62 245.74 1606.91 251.54 1616.00 253.00 C 1625.09 254.46 1634.52 255.86 1643.32 257.68 C 1652.13 259.50 1664.53 263.48 1673.77 262.77 C 1683.02 262.06 1693.50 264.51 1704.00 263.00 C 1714.50 261.49 1725.91 262.27 1735.00 260.00 C 1744.09 257.73 1753.81 256.98 1761.70 254.70 C 1769.60 252.43 1778.87 246.44 1786.75 243.80 C 1794.63 241.17 1800.05 237.44 1807.25 232.25 C 1814.44 227.06 1819.84 221.12 1826.25 215.25 C 1832.65 209.37 1836.44 199.63 1843.00 196.00
C 1844.19 187.28 1849.55 174.77 1850.07 165.07 C 1850.60 155.38 1853.04 137.71 1845.25 131.76 C 1837.45 125.80 1828.14 141.34 1820.25 143.25 C 1812.35 145.15 1804.06 153.52 1794.70 155.69 C 1785.33 157.87 1777.44 161.64 1768.01 163.01 C 1758.58 164.37 1748.19 166.85 1738.00 167.00 C 1727.81 167.15 1711.55 164.71 1701.07 163.93 C 1690.60 163.15 1678.18 161.11 1671.00 155.00
C 1663.24 158.20 1657.14 151.42 1649.00 151.00 C 1640.86 150.57 1631.99 143.90 1624.00 146.00
C 1618.24 138.59 1605.68 143.17 1599.00 136.00
C 1587.25 134.72 1575.15 134.13 1563.22 131.78 C 1551.30 129.42 1538.80 127.03 1526.00 126.00 C 1513.20 124.97 1498.90 129.07 1488.08 131.93 C 1477.25 134.79 1471.23 139.44 1461.08 146.08 C 1450.92 152.71 1446.75 162.70 1439.00 169.00
C 1441.82 171.08 1440.61 175.01 1437.00 175.00
C 1436.91 177.82 1438.67 180.06 1438.00 183.00
C 1433.54 186.50 1434.90 195.34 1432.40 200.25 C 1429.89 205.15 1432.69 212.97 1430.99 218.99 C 1429.30 225.01 1428.71 229.12 1427.99 234.99 C 1427.27 240.87 1420.07 243.20 1418.00 247.00
C 1410.33 247.99 1401.36 247.76 1394.22 245.78 C 1387.08 243.80 1382.30 240.42 1376.22 236.78 C 1370.14 233.13 1366.66 230.10 1361.25 226.75 C 1355.83 223.40 1350.52 219.79 1345.75 216.25 C 1340.98 212.71 1335.44 210.21 1330.70 206.30 C 1325.96 202.39 1318.58 199.62 1314.08 195.92 C 1309.59 192.22 1302.87 187.24 1300.00 188.00
C 1298.94 185.12 1295.75 183.52 1295.00 181.00
C 1290.87 183.31 1288.20 179.67 1287.00 176.00
C 1282.68 177.04 1276.67 173.00 1275.00 169.00
C 1265.44 169.12 1256.88 156.45 1247.00 157.00
C 1245.60 154.30 1244.03 152.15 1241.00 154.00
C 1238.96 149.10 1232.48 148.47 1228.23 147.77 C 1223.98 147.07 1219.86 143.99 1216.08 142.07 C 1212.29 140.15 1205.63 141.65 1202.29 138.71 C 1198.96 135.76 1190.43 138.97 1192.00 133.00
C 1185.14 135.51 1177.90 132.57 1171.67 131.67 C 1165.44 130.76 1159.15 129.30 1153.02 128.98 C 1146.90 128.66 1140.64 124.42 1134.00 126.00 C 1127.37 127.57 1120.72 123.28 1118.00 122.00
C 1110.04 122.66 1099.25 124.07 1091.03 124.97 C 1082.81 125.86 1076.39 122.33 1068.69 123.65 C 1061.00 124.96 1050.24 124.37 1041.00 126.00 C 1031.76 127.63 1021.64 126.92 1012.74 128.74 C 1003.84 130.57 993.49 133.02 984.00 134.00 C 974.51 134.98 969.54 135.75 960.01 137.01 C 950.47 138.27 942.26 140.17 932.67 141.67 C 923.08 143.17 913.63 141.51 904.07 144.07 C 894.51 146.64 882.82 144.41 873.00 145.00 C 863.18 145.59 852.99 144.35 844.00 143.00 C 835.01 141.65 821.93 141.97 813.22 139.78 C 804.51 137.59 797.80 139.59 789.74 137.60 C 781.68 135.61 774.58 135.90 769.00 132.00
C 762.78 133.09 753.60 135.08 750.00 128.00
C 754.49 129.35 755.38 128.40 754.00 124.00
C 761.49 124.15 769.82 119.06 776.75 114.75 C 783.69 110.45 789.22 107.48 793.00 100.00
C 785.83 94.46 763.82 101.42 760.01 92.01 C 756.20 82.59 776.11 78.97 781.00 77.00
C 784.67 67.24 796.73 72.04 803.25 61.25 C 809.76 50.46 790.65 50.38 781.00 51.00 C 771.35 51.62 757.91 53.29 748.01 53.01 C 738.11 52.73 727.32 54.18 717.00 56.00 C 706.68 57.82 697.71 56.82 687.00 58.00 C 676.29 59.18 663.05 57.23 653.00 57.00
C 652.10 54.08 646.12 50.64 648.07 46.07 C 650.03 41.50 649.25 37.71 654.00 39.00
C 651.26 35.08 656.44 34.49 656.00 31.00
C 644.60 31.72 631.59 30.85 621.01 32.01 C 610.43 33.16 600.13 36.06 591.08 37.94 C 582.04 39.81 574.32 44.18 566.00 42.00
C 558.89 48.45 549.18 47.35 540.08 51.94 C 530.99 56.52 521.40 53.21 511.08 57.08 C 500.75 60.94 488.29 55.35 495.00 41.00
C 500.19 38.43 505.05 30.47 506.00 24.00
C 497.70 24.23 488.19 29.14 481.10 32.10 C 474.01 35.06 466.93 36.75 459.75 40.75 C 452.58 44.76 445.15 48.12 437.67 51.67 C 430.20 55.22 423.56 58.01 416.00 62.00 C 408.44 65.99 402.06 65.23 397.00 71.00
C 388.09 71.09 378.30 78.26 368.00 79.00
C 365.58 60.30 377.16 39.08 369.00 21.00
M 766.00 439.00 
C 771.64 437.81 780.14 436.70 788.00 437.00 C 795.86 437.30 804.84 437.31 812.00 438.00
C 820.86 437.14 831.23 436.31 839.00 439.00
C 842.05 432.75 851.65 434.59 858.23 432.23 C 864.81 429.87 874.20 428.65 881.00 429.00
C 884.45 424.56 892.69 424.96 898.68 423.66 C 904.67 422.37 912.15 415.81 918.00 419.00
C 926.43 411.72 939.96 411.86 950.08 406.94 C 960.20 402.01 969.03 399.04 979.08 395.94 C 989.14 392.83 1002.03 388.33 1013.00 385.00
C 1013.33 388.53 1009.66 393.48 1013.00 396.00
C 1006.31 398.86 1010.96 407.45 1004.00 410.00
C 1004.05 412.86 1005.89 417.67 1001.00 417.00
C 1001.13 423.03 999.59 429.49 995.00 433.00
C 996.18 435.73 997.79 439.85 993.00 440.00
C 993.84 449.14 984.87 457.53 985.00 466.00
C 977.54 472.52 974.32 482.75 967.68 490.68 C 961.03 498.61 954.84 506.87 949.20 514.25 C 943.56 521.63 936.46 534.43 926.00 535.00
C 923.88 528.47 912.40 533.48 905.00 533.00 C 897.60 532.52 887.68 534.31 880.00 536.00
C 878.35 542.97 869.19 548.62 862.92 552.92 C 856.65 557.22 850.89 565.45 843.00 567.00
C 842.33 571.17 835.22 575.73 830.77 579.77 C 826.32 583.81 819.80 587.29 816.00 592.00
C 813.76 587.99 805.00 586.97 811.00 583.00
C 803.60 585.26 800.34 577.87 795.25 572.75 C 790.16 567.64 784.58 564.66 781.23 557.77 C 777.88 550.88 772.08 547.33 784.08 542.08 C 796.08 536.83 804.14 517.97 819.00 521.00
C 822.25 515.73 831.11 516.54 835.75 512.74 C 840.39 508.94 844.76 501.84 850.00 499.00
C 847.90 496.11 851.71 489.68 855.00 492.00
C 852.92 484.36 863.98 481.90 862.00 473.00
C 854.00 474.05 843.26 471.20 835.93 471.07 C 828.59 470.94 822.29 469.21 814.99 470.01 C 807.69 470.81 799.12 465.71 792.99 467.99 C 786.87 470.28 788.16 483.49 785.22 488.22 C 782.28 492.96 778.03 497.78 776.00 501.00
C 769.77 495.00 760.73 499.66 752.00 498.00
C 748.62 486.68 747.38 475.35 746.00 464.00
C 750.24 467.67 746.19 457.16 748.93 453.93 C 751.66 450.69 751.24 444.05 750.00 440.00
C 754.67 440.24 760.30 438.02 766.00 439.00
M 610.00 451.00 
C 625.63 473.78 648.20 489.07 659.00 514.00
C 656.26 515.76 655.87 515.71 653.00 514.00
C 652.02 519.55 643.11 516.37 638.00 517.00 C 632.89 517.63 627.24 516.04 622.00 517.00
C 620.10 510.56 610.94 518.69 609.00 511.00
C 598.38 511.68 589.28 504.37 586.89 494.11 C 584.51 483.85 594.94 473.27 595.00 465.00
C 599.97 463.07 600.28 457.57 601.00 453.00
C 604.05 454.18 608.00 453.60 610.00 451.00 Z"/>
</g>
<g fill="None" fill-opacity="0.0" stroke="#000000" stroke-opacity="0.00" stroke-width="0.3"><path d="
M 812.00 438.00 
C 797.22 439.43 781.68 439.00 766.00 439.00
C 760.30 438.02 754.67 440.24 750.00 440.00
C 751.24 444.05 751.66 450.69 748.93 453.93 C 746.19 457.16 750.24 467.67 746.00 464.00
C 747.38 475.35 748.62 486.68 752.00 498.00
C 760.73 499.66 769.77 495.00 776.00 501.00
C 778.03 497.78 782.28 492.96 785.22 488.22 C 788.16 483.49 786.87 470.28 792.99 467.99 C 799.12 465.71 807.69 470.81 814.99 470.01 C 822.29 469.21 828.59 470.94 835.93 471.07 C 843.26 471.20 854.00 474.05 862.00 473.00
C 863.98 481.90 852.92 484.36 855.00 492.00
C 851.71 489.68 847.90 496.11 850.00 499.00
C 844.76 501.84 840.39 508.94 835.75 512.74 C 831.11 516.54 822.25 515.73 819.00 521.00
C 804.14 517.97 796.08 536.83 784.08 542.08 C 772.08 547.33 777.88 550.88 781.23 557.77 C 784.58 564.66 790.16 567.64 795.25 572.75 C 800.34 577.87 803.60 585.26 811.00 583.00
C 805.00 586.97 813.76 587.99 816.00 592.00
C 819.80 587.29 826.32 583.81 830.77 579.77 C 835.22 575.73 842.33 571.17 843.00 567.00
C 850.89 565.45 856.65 557.22 862.92 552.92 C 869.19 548.62 878.35 542.97 880.00 536.00
C 887.68 534.31 897.60 532.52 905.00 533.00 C 912.40 533.48 923.88 528.47 926.00 535.00
C 936.46 534.43 943.56 521.63 949.20 514.25 C 954.84 506.87 961.03 498.61 967.68 490.68 C 974.32 482.75 977.54 472.52 985.00 466.00
C 984.87 457.53 993.84 449.14 993.00 440.00
C 997.79 439.85 996.18 435.73 995.00 433.00
C 999.59 429.49 1001.13 423.03 1001.00 417.00
C 1005.89 417.67 1004.05 412.86 1004.00 410.00
C 1010.96 407.45 1006.31 398.86 1013.00 396.00
C 1009.66 393.48 1013.33 388.53 1013.00 385.00
C 1002.03 388.33 989.14 392.83 979.08 395.94 C 969.03 399.04 960.20 402.01 950.08 406.94 C 939.96 411.86 926.43 411.72 918.00 419.00
C 912.15 415.81 904.67 422.37 898.68 423.66 C 892.69 424.96 884.45 424.56 881.00 429.00
C 874.20 428.65 864.81 429.87 858.23 432.23 C 851.65 434.59 842.05 432.75 839.00 439.00
C 831.23 436.31 820.86 437.14 812.00 438.00 Z"/>
</g>
<g fill="None" fill-opacity="0.0" stroke="#231F1E" stroke-opacity="0.49" stroke-width="0.3"><path d="
M 766.00 439.00 
C 781.68 439.00 797.22 439.43 812.00 438.00
C 804.84 437.31 795.86 437.30 788.00 437.00 C 780.14 436.70 771.64 437.81 766.00 439.00 Z"/>
</g>
<g fill="None" fill-opacity="0.0" stroke="#000000" stroke-opacity="0.00" stroke-width="0.3"><path d="
M 610.00 451.00 
C 608.00 453.60 604.05 454.18 601.00 453.00
C 600.28 457.57 599.97 463.07 595.00 465.00
C 594.94 473.27 584.51 483.85 586.89 494.11 C 589.28 504.37 598.38 511.68 609.00 511.00
C 610.94 518.69 620.10 510.56 622.00 517.00
C 627.24 516.04 632.89 517.63 638.00 517.00 C 643.11 516.37 652.02 519.55 653.00 514.00
C 655.87 515.71 656.26 515.76 659.00 514.00
C 648.20 489.07 625.63 473.78 610.00 451.00 Z"/>
</g>
<g fill="None" fill-opacity="0.0" stroke="#23201E" stroke-opacity="0.95" stroke-width="0.3"><path d="
M 766.00 919.00 
C 758.42 916.93 751.02 911.54 743.25 910.76 C 735.47 909.97 730.51 905.21 722.00 906.00 C 713.49 906.79 703.40 906.89 695.01 907.01 C 686.61 907.13 679.40 909.74 672.03 912.03 C 664.65 914.32 659.84 920.25 656.30 926.30 C 652.76 932.34 648.71 942.00 650.00 950.00 C 651.30 958.00 651.17 966.23 655.89 972.11 C 660.61 977.98 666.72 982.10 673.78 985.22 C 680.84 988.34 689.25 990.59 696.97 991.98 C 704.70 993.37 713.92 993.36 721.92 995.08 C 729.93 996.80 736.74 997.86 742.25 1004.75 C 747.75 1011.65 745.37 1021.29 740.25 1027.25 C 735.13 1033.20 726.55 1033.75 718.00 1033.00 C 709.45 1032.25 699.74 1035.29 692.01 1032.99 C 684.28 1030.69 675.28 1031.58 669.22 1025.78 C 663.17 1019.97 653.90 1020.16 651.19 1026.75 C 648.49 1033.35 638.63 1038.40 646.78 1043.22 C 654.92 1048.05 660.10 1047.98 667.93 1052.07 C 675.75 1056.17 682.84 1055.02 690.98 1057.02 C 699.12 1059.03 707.98 1057.51 716.00 1058.00 C 724.01 1058.49 732.41 1055.22 740.77 1054.77 C 749.13 1054.32 754.21 1048.80 760.30 1044.30 C 766.39 1039.81 769.01 1030.80 773.00 1027.00
C 771.70 1013.15 775.08 995.86 762.75 985.25 C 750.42 974.63 739.36 973.66 725.22 970.78 C 711.08 967.90 696.04 966.77 683.00 962.00
C 682.39 959.19 680.72 952.38 679.00 958.00
C 671.56 940.89 689.34 929.32 705.00 931.00 C 720.66 932.68 736.57 932.40 747.00 942.00
C 756.98 939.23 761.88 927.70 766.00 919.00 Z"/>
</g>
<g fill="None" fill-opacity="0.0" stroke="#231F1E" stroke-opacity="0.96" stroke-width="0.3"><path d="
M 1809.00 972.00 
C 1809.34 977.38 1808.99 983.38 1808.00 988.00
C 1805.86 989.38 1807.52 992.80 1807.00 995.00
C 1821.33 995.00 1835.67 995.00 1850.00 995.00
C 1849.07 1003.57 1850.17 1013.47 1844.90 1020.90 C 1839.64 1028.33 1833.46 1032.89 1824.07 1033.07 C 1814.69 1033.26 1804.30 1034.35 1796.00 1033.00 C 1787.71 1031.65 1779.13 1029.09 1773.75 1022.25 C 1768.37 1015.42 1766.57 1010.05 1764.32 1001.68 C 1762.07 993.30 1760.86 980.18 1763.01 972.01 C 1765.15 963.84 1766.50 953.52 1772.08 947.08 C 1777.66 940.64 1784.33 934.46 1793.33 933.33 C 1802.32 932.20 1810.90 934.32 1820.00 934.00 C 1829.09 933.67 1835.87 936.58 1844.26 942.74 C 1852.65 948.91 1856.52 936.72 1863.25 931.25 C 1869.99 925.79 1860.54 918.18 1853.07 914.93 C 1845.60 911.67 1837.61 909.37 1829.70 907.31 C 1821.79 905.25 1810.40 907.03 1802.00 907.00 C 1793.61 906.97 1782.50 909.37 1774.25 912.25 C 1765.99 915.12 1760.49 920.30 1754.04 926.04 C 1747.58 931.77 1743.09 938.27 1740.32 947.32 C 1737.56 956.37 1734.67 965.58 1735.00 976.00 C 1735.33 986.42 1734.79 998.01 1737.01 1006.99 C 1739.23 1015.97 1741.78 1024.18 1744.00 1032.00
C 1750.45 1034.63 1754.25 1040.82 1759.25 1045.75 C 1764.25 1050.68 1773.49 1050.93 1776.00 1055.00
C 1803.37 1058.58 1833.37 1061.87 1857.25 1046.25 C 1881.12 1030.63 1877.42 998.19 1878.00 972.00
C 1870.41 972.56 1861.45 971.26 1854.00 972.00 C 1846.55 972.74 1836.94 970.58 1830.00 972.00 C 1823.06 973.42 1814.31 968.60 1809.00 972.00 Z"/>
</g>
<g fill="None" fill-opacity="0.0" stroke="#221F1E" stroke-opacity="0.95" stroke-width="0.3"><path d="
M 1244.00 908.00 
C 1234.75 907.37 1224.84 909.28 1216.00 907.00
C 1213.74 913.32 1207.78 920.94 1210.00 926.00
C 1202.54 927.92 1206.25 936.43 1202.70 940.70 C 1199.16 944.98 1199.41 954.29 1194.00 956.00
C 1194.64 958.36 1196.68 963.99 1192.00 963.00
C 1189.24 970.01 1190.36 980.50 1184.00 983.00
C 1177.52 1008.21 1164.76 1031.02 1157.00 1055.00
C 1164.17 1057.44 1168.41 1054.29 1175.78 1055.78 C 1183.15 1057.26 1185.57 1052.62 1186.30 1046.30 C 1187.03 1039.98 1194.21 1038.76 1192.00 1031.00
C 1216.22 1029.77 1242.51 1028.73 1266.00 1031.00
C 1264.80 1036.87 1271.35 1040.82 1269.00 1047.00
C 1273.13 1046.21 1272.66 1051.64 1272.00 1054.00
C 1280.61 1058.76 1291.12 1052.58 1301.00 1056.00
C 1302.82 1051.61 1299.91 1046.49 1297.31 1042.69 C 1294.70 1038.90 1295.86 1030.53 1291.00 1030.00
C 1291.13 1027.32 1288.69 1024.39 1292.00 1023.00
C 1285.58 1019.18 1284.55 1008.68 1280.78 1001.22 C 1277.00 993.76 1274.98 984.87 1271.92 977.08 C 1268.87 969.28 1264.17 962.75 1262.77 955.23 C 1261.37 947.71 1252.83 939.78 1257.00 933.00
C 1250.92 933.08 1252.97 926.61 1249.33 922.67 C 1245.68 918.74 1247.56 911.95 1244.00 908.00
M 1238.00 971.00 
C 1246.02 971.62 1241.10 984.11 1248.00 986.00
C 1245.53 992.07 1252.03 996.70 1253.00 1005.00
C 1238.50 1005.11 1222.19 1004.92 1207.00 1005.00
C 1209.46 1002.30 1206.82 1001.15 1205.00 1000.00
C 1208.28 994.65 1209.12 990.08 1211.93 983.93 C 1214.73 977.78 1216.55 973.73 1218.92 966.92 C 1221.29 960.10 1225.34 959.40 1224.29 952.70 C 1223.24 946.00 1235.42 946.90 1233.22 954.22 C 1231.01 961.55 1242.92 963.13 1238.00 971.00 Z"/>
</g>
<g fill="None" fill-opacity="0.0" stroke="#231F1E" stroke-opacity="0.96" stroke-width="0.3"><path d="
M 176.00 1003.00 
C 177.38 1007.68 176.54 1013.78 177.00 1019.00 C 177.46 1024.22 175.72 1031.13 177.00 1036.00 C 178.28 1040.87 174.66 1049.69 176.00 1053.00
C 180.56 1055.93 191.61 1055.64 198.32 1055.66 C 205.03 1055.68 201.37 1042.37 202.00 1036.00 C 202.63 1029.63 201.73 1019.41 202.00 1012.00 C 202.27 1004.59 201.89 994.84 202.00 987.00 C 202.11 979.16 201.99 971.10 202.00 963.00 C 202.01 954.90 202.08 947.42 202.00 939.00 C 201.92 930.58 202.02 924.78 202.99 916.01 C 203.96 907.23 191.46 908.38 185.00 909.00 C 178.54 909.62 167.88 906.39 164.92 912.92 C 161.97 919.46 160.29 923.52 157.93 929.93 C 155.57 936.33 151.34 940.72 152.00 948.00
C 146.37 951.33 146.19 962.15 142.75 968.75 C 139.32 975.36 136.08 982.51 133.78 989.78 C 131.48 997.05 127.07 1003.32 126.00 1011.00
C 123.41 1010.90 121.97 1007.89 119.00 1009.00
C 117.98 1001.70 113.35 995.05 110.93 988.07 C 108.50 981.09 107.51 974.30 104.75 968.25 C 101.98 962.21 97.57 955.78 94.99 949.01 C 92.42 942.24 92.08 934.94 87.00 931.00
C 87.13 923.89 81.67 917.03 80.00 909.00
C 67.42 908.35 54.17 910.31 42.00 908.00
C 43.60 922.56 43.27 936.89 43.00 952.00 C 42.73 967.11 43.90 980.44 43.00 996.00 C 42.10 1011.56 45.07 1024.54 43.00 1041.00 C 40.93 1057.46 54.30 1058.15 69.00 1055.00
C 68.94 1021.71 67.90 988.34 69.00 956.00
C 74.42 962.73 76.03 971.95 80.01 979.99 C 83.99 988.04 86.38 996.48 90.03 1004.98 C 93.67 1013.47 96.89 1018.66 99.34 1026.32 C 101.79 1033.99 105.52 1041.32 108.08 1049.92 C 110.64 1058.52 128.66 1054.63 135.00 1055.00
C 135.36 1052.48 133.57 1046.91 138.00 1048.00
C 136.21 1044.72 136.94 1039.53 142.00 1041.00
C 139.37 1034.81 144.76 1026.71 147.25 1020.25 C 149.73 1013.78 152.49 1006.30 156.70 1000.70 C 160.90 995.09 159.26 984.98 163.25 980.25 C 167.23 975.51 166.55 961.37 171.77 958.79 C 176.99 956.21 175.55 974.01 175.00 979.00 C 174.45 983.99 174.97 999.51 176.00 1003.00 Z"/>
</g>
<g fill="None" fill-opacity="0.0" stroke="#231F1E" stroke-opacity="0.96" stroke-width="0.3"><path d="
M 390.00 909.00 
C 380.73 908.74 370.60 909.37 362.00 909.00
C 361.93 921.00 362.10 934.12 362.00 946.00 C 361.90 957.88 362.19 970.44 362.00 982.00 C 361.81 993.56 361.83 1006.90 363.67 1017.33 C 365.51 1027.76 368.33 1034.21 374.75 1042.25 C 381.17 1050.28 389.72 1049.90 395.00 1056.00
C 417.00 1056.71 441.54 1062.39 464.78 1052.78 C 488.02 1043.17 495.30 1021.19 494.00 995.00 C 492.70 968.81 495.32 935.50 493.00 909.00
C 484.33 909.00 475.67 909.00 467.00 909.00
C 467.71 919.52 466.50 930.92 466.00 941.00 C 465.50 951.08 465.54 963.18 466.00 973.00 C 466.46 982.82 467.42 993.79 466.00 1003.00 C 464.58 1012.21 464.84 1021.14 456.74 1026.74 C 448.65 1032.34 443.83 1030.84 435.00 1033.00 C 426.17 1035.16 414.65 1029.60 408.00 1032.00
C 388.96 1020.19 389.68 1000.57 390.00 979.00 C 390.32 957.43 389.76 931.01 390.00 909.00 Z"/>
</g>
<g fill="None" fill-opacity="0.0" stroke="#221F1E" stroke-opacity="0.96" stroke-width="0.3"><path d="
M 961.00 1037.00 
C 962.09 1042.10 962.00 1048.23 962.00 1054.00
C 970.04 1053.26 979.76 1053.72 987.00 1055.00
C 989.04 1046.39 987.72 1036.52 988.00 1027.00 C 988.28 1017.48 987.85 1007.67 988.00 998.00 C 988.15 988.33 987.88 978.83 988.00 969.00 C 988.12 959.17 987.84 950.09 988.00 940.00 C 988.16 929.91 1002.66 934.82 1011.00 934.00 C 1019.34 933.18 1031.33 934.62 1040.00 934.00
C 1039.22 926.54 1046.03 909.10 1035.00 909.00 C 1023.97 908.90 1013.81 909.05 1003.00 909.00 C 992.19 908.95 981.69 909.02 971.00 909.00 C 960.31 908.98 949.58 909.01 939.00 909.00 C 928.42 908.99 918.52 909.01 908.00 909.00
C 907.70 917.28 908.44 926.38 908.00 934.00
C 925.33 934.00 942.67 934.00 960.00 934.00
C 960.39 950.28 959.20 968.16 961.00 985.00 C 962.80 1001.84 957.64 1021.32 961.00 1037.00 Z"/>
</g>
<g fill="None" fill-opacity="0.0" stroke="#221F1E" stroke-opacity="0.96" stroke-width="0.3"><path d="
M 1557.00 1055.00 
C 1563.63 1056.41 1574.42 1051.86 1582.00 1054.00
C 1582.00 1005.67 1582.00 957.34 1582.00 909.00
C 1573.00 909.00 1564.00 909.00 1555.00 909.00
C 1554.63 920.07 1555.49 932.01 1555.00 943.00 C 1554.51 953.99 1555.94 966.33 1555.00 977.00 C 1554.06 987.67 1557.24 997.73 1552.00 1006.00
C 1545.92 998.12 1541.01 990.43 1535.30 982.70 C 1529.60 974.96 1525.25 966.33 1518.92 959.08 C 1512.59 951.83 1509.10 943.72 1502.70 936.30 C 1496.30 928.87 1491.20 921.89 1485.30 913.70 C 1479.41 905.50 1460.77 910.11 1451.00 909.00
C 1450.96 917.07 1452.28 923.96 1451.33 932.33 C 1450.38 940.70 1451.33 950.30 1451.00 959.00 C 1450.67 967.70 1451.41 977.26 1451.00 986.00 C 1450.59 994.75 1451.76 1004.38 1451.00 1013.00 C 1450.24 1021.62 1452.42 1030.94 1451.98 1038.98 C 1451.53 1047.01 1450.14 1056.24 1458.93 1055.07 C 1467.72 1053.91 1470.74 1057.55 1479.00 1055.00
C 1479.28 1043.56 1478.62 1031.37 1479.00 1020.00 C 1479.38 1008.63 1478.28 996.09 1479.00 985.00 C 1479.72 973.91 1476.10 961.65 1482.00 953.00
C 1487.50 962.19 1494.85 970.88 1500.70 979.31 C 1506.54 987.73 1512.53 997.50 1519.25 1004.75 C 1525.97 1012.01 1530.72 1023.52 1537.25 1030.75 C 1543.77 1037.99 1549.29 1051.35 1557.00 1055.00 Z"/>
</g>
<g fill="None" fill-opacity="0.0" stroke="#000000" stroke-opacity="0.00" stroke-width="0.3"><path d="
M 1238.00 971.00 
C 1242.92 963.13 1231.01 961.55 1233.22 954.22 C 1235.42 946.90 1223.24 946.00 1224.29 952.70 C 1225.34 959.40 1221.29 960.10 1218.92 966.92 C 1216.55 973.73 1214.73 977.78 1211.93 983.93 C 1209.12 990.08 1208.28 994.65 1205.00 1000.00
C 1206.82 1001.15 1209.46 1002.30 1207.00 1005.00
C 1222.19 1004.92 1238.50 1005.11 1253.00 1005.00
C 1252.03 996.70 1245.53 992.07 1248.00 986.00
C 1241.10 984.11 1246.02 971.62 1238.00 971.00 Z"/>
</g>
<g fill="None" fill-opacity="0.0" stroke="#252323" stroke-opacity="0.47" stroke-width="0.3"><path d="
M 1808.00 988.00 
C 1808.99 983.38 1809.34 977.38 1809.00 972.00
C 1804.30 975.01 1808.01 983.72 1808.00 988.00 Z"/>
</g>
<g fill="None" fill-opacity="0.0" stroke="#232120" stroke-opacity="0.57" stroke-width="0.3"><path d="
M 176.00 1053.00 
C 174.66 1049.69 178.28 1040.87 177.00 1036.00 C 175.72 1031.13 177.46 1024.22 177.00 1019.00 C 176.54 1013.78 177.38 1007.68 176.00 1003.00
C 176.50 1010.48 174.31 1020.72 175.00 1028.00 C 175.69 1035.28 172.22 1047.55 176.00 1053.00 Z"/>
</g>
<g fill="None" fill-opacity="0.0" stroke="#242120" stroke-opacity="0.69" stroke-width="0.3"><path d="
M 962.00 1055.00 
C 961.77 1054.84 962.00 1054.00 962.00 1054.00
C 962.00 1048.23 962.09 1042.10 961.00 1037.00
C 961.25 1039.67 959.87 1055.31 962.00 1055.00 Z"/>
</g>
<g fill="None" fill-opacity="0.0" stroke="#211F1F" stroke-opacity="0.55" stroke-width="0.3"><path d="
M 962.00 1055.00 
C 964.41 1056.68 971.93 1056.32 975.32 1055.34 C 978.71 1054.35 983.97 1057.94 987.00 1055.00
C 979.76 1053.72 970.04 1053.26 962.00 1054.00
C 962.00 1054.00 961.77 1054.84 962.00 1055.00 Z"/>
</g>
<g fill="None" fill-opacity="0.0" stroke="#22201F" stroke-opacity="0.51" stroke-width="0.3"><path d="
M 1557.00 1055.00 
C 1560.55 1056.68 1580.20 1057.64 1582.00 1054.00
C 1574.42 1051.86 1563.63 1056.41 1557.00 1055.00 Z"/>
</g>
<g fill="#000000" fill-opacity="0.00" stroke="None">
<path d="
M 0.00 1080.00 
L 1920.00 1080.00
L 1920.00 0.00
L 0.00 0.00
L 0.00 1080.00
M 369.00 21.00 
C 377.16 39.08 365.58 60.30 368.00 79.00
C 378.30 78.26 388.09 71.09 397.00 71.00
C 402.06 65.23 408.44 65.99 416.00 62.00 C 423.56 58.01 430.20 55.22 437.67 51.67 C 445.15 48.12 452.58 44.76 459.75 40.75 C 466.93 36.75 474.01 35.06 481.10 32.10 C 488.19 29.14 497.70 24.23 506.00 24.00
C 505.05 30.47 500.19 38.43 495.00 41.00
C 488.29 55.35 500.75 60.94 511.08 57.08 C 521.40 53.21 530.99 56.52 540.08 51.94 C 549.18 47.35 558.89 48.45 566.00 42.00
C 574.32 44.18 582.04 39.81 591.08 37.94 C 600.13 36.06 610.43 33.16 621.01 32.01 C 631.59 30.85 644.60 31.72 656.00 31.00
C 656.44 34.49 651.26 35.08 654.00 39.00
C 649.25 37.71 650.03 41.50 648.07 46.07 C 646.12 50.64 652.10 54.08 653.00 57.00
C 663.05 57.23 676.29 59.18 687.00 58.00 C 697.71 56.82 706.68 57.82 717.00 56.00 C 727.32 54.18 738.11 52.73 748.01 53.01 C 757.91 53.29 771.35 51.62 781.00 51.00 C 790.65 50.38 809.76 50.46 803.25 61.25 C 796.73 72.04 784.67 67.24 781.00 77.00
C 776.11 78.97 756.20 82.59 760.01 92.01 C 763.82 101.42 785.83 94.46 793.00 100.00
C 789.22 107.48 783.69 110.45 776.75 114.75 C 769.82 119.06 761.49 124.15 754.00 124.00
C 755.38 128.40 754.49 129.35 750.00 128.00
C 753.60 135.08 762.78 133.09 769.00 132.00
C 774.58 135.90 781.68 135.61 789.74 137.60 C 797.80 139.59 804.51 137.59 813.22 139.78 C 821.93 141.97 835.01 141.65 844.00 143.00 C 852.99 144.35 863.18 145.59 873.00 145.00 C 882.82 144.41 894.51 146.64 904.07 144.07 C 913.63 141.51 923.08 143.17 932.67 141.67 C 942.26 140.17 950.47 138.27 960.01 137.01 C 969.54 135.75 974.51 134.98 984.00 134.00 C 993.49 133.02 1003.84 130.57 1012.74 128.74 C 1021.64 126.92 1031.76 127.63 1041.00 126.00 C 1050.24 124.37 1061.00 124.96 1068.69 123.65 C 1076.39 122.33 1082.81 125.86 1091.03 124.97 C 1099.25 124.07 1110.04 122.66 1118.00 122.00
C 1120.72 123.28 1127.37 127.57 1134.00 126.00 C 1140.64 124.42 1146.90 128.66 1153.02 128.98 C 1159.15 129.30 1165.44 130.76 1171.67 131.67 C 1177.90 132.57 1185.14 135.51 1192.00 133.00
C 1190.43 138.97 1198.96 135.76 1202.29 138.71 C 1205.63 141.65 1212.29 140.15 1216.08 142.07 C 1219.86 143.99 1223.98 147.07 1228.23 147.77 C 1232.48 148.47 1238.96 149.10 1241.00 154.00
C 1244.03 152.15 1245.60 154.30 1247.00 157.00
C 1256.88 156.45 1265.44 169.12 1275.00 169.00
C 1276.67 173.00 1282.68 177.04 1287.00 176.00
C 1288.20 179.67 1290.87 183.31 1295.00 181.00
C 1295.75 183.52 1298.94 185.12 1300.00 188.00
C 1302.87 187.24 1309.59 192.22 1314.08 195.92 C 1318.58 199.62 1325.96 202.39 1330.70 206.30 C 1335.44 210.21 1340.98 212.71 1345.75 216.25 C 1350.52 219.79 1355.83 223.40 1361.25 226.75 C 1366.66 230.10 1370.14 233.13 1376.22 236.78 C 1382.30 240.42 1387.08 243.80 1394.22 245.78 C 1401.36 247.76 1410.33 247.99 1418.00 247.00
C 1420.07 243.20 1427.27 240.87 1427.99 234.99 C 1428.71 229.12 1429.30 225.01 1430.99 218.99 C 1432.69 212.97 1429.89 205.15 1432.40 200.25 C 1434.90 195.34 1433.54 186.50 1438.00 183.00
C 1438.67 180.06 1436.91 177.82 1437.00 175.00
C 1440.61 175.01 1441.82 171.08 1439.00 169.00
C 1446.75 162.70 1450.92 152.71 1461.08 146.08 C 1471.23 139.44 1477.25 134.79 1488.08 131.93 C 1498.90 129.07 1513.20 124.97 1526.00 126.00 C 1538.80 127.03 1551.30 129.42 1563.22 131.78 C 1575.15 134.13 1587.25 134.72 1599.00 136.00
C 1605.68 143.17 1618.24 138.59 1624.00 146.00
C 1631.99 143.90 1640.86 150.57 1649.00 151.00 C 1657.14 151.42 1663.24 158.20 1671.00 155.00
C 1678.18 161.11 1690.60 163.15 1701.07 163.93 C 1711.55 164.71 1727.81 167.15 1738.00 167.00 C 1748.19 166.85 1758.58 164.37 1768.01 163.01 C 1777.44 161.64 1785.33 157.87 1794.70 155.69 C 1804.06 153.52 1812.35 145.15 1820.25 143.25 C 1828.14 141.34 1837.45 125.80 1845.25 131.76 C 1853.04 137.71 1850.60 155.38 1850.07 165.07 C 1849.55 174.77 1844.19 187.28 1843.00 196.00
C 1836.44 199.63 1832.65 209.37 1826.25 215.25 C 1819.84 221.12 1814.44 227.06 1807.25 232.25 C 1800.05 237.44 1794.63 241.17 1786.75 243.80 C 1778.87 246.44 1769.60 252.43 1761.70 254.70 C 1753.81 256.98 1744.09 257.73 1735.00 260.00 C 1725.91 262.27 1714.50 261.49 1704.00 263.00 C 1693.50 264.51 1683.02 262.06 1673.77 262.77 C 1664.53 263.48 1652.13 259.50 1643.32 257.68 C 1634.52 255.86 1625.09 254.46 1616.00 253.00 C 1606.91 251.54 1598.62 245.74 1590.75 244.25 C 1582.88 242.75 1569.70 236.07 1561.00 238.00 C 1552.30 239.93 1542.93 244.87 1542.00 254.00
C 1537.40 253.08 1534.34 263.36 1530.25 269.25 C 1526.15 275.14 1523.13 282.97 1516.75 287.75 C 1510.37 292.54 1507.43 299.57 1499.75 302.75 C 1492.07 305.94 1485.18 308.08 1476.92 309.92 C 1468.67 311.77 1459.08 310.41 1450.00 311.00 C 1440.92 311.59 1431.79 310.85 1423.00 311.00 C 1414.21 311.15 1408.37 311.50 1401.08 308.91 C 1393.80 306.33 1382.17 309.13 1373.99 309.99 C 1365.81 310.86 1357.50 313.61 1352.25 320.25 C 1347.00 326.89 1341.22 332.44 1341.00 341.00
C 1336.70 342.27 1333.69 346.85 1336.00 351.00
C 1328.90 350.53 1330.06 365.48 1323.75 370.75 C 1317.45 376.02 1316.25 385.80 1309.75 390.75 C 1303.24 395.69 1299.34 402.66 1293.74 408.74 C 1288.15 414.83 1284.87 422.55 1278.25 427.25 C 1271.62 431.95 1266.85 438.96 1259.77 442.77 C 1252.69 446.58 1248.12 453.92 1241.30 458.30 C 1234.48 462.68 1228.60 468.93 1221.75 472.75 C 1214.90 476.58 1207.83 480.12 1200.99 483.99 C 1194.15 487.86 1185.61 491.63 1178.30 495.30 C 1171.00 498.98 1161.75 501.73 1154.77 505.77 C 1147.79 509.81 1137.61 512.42 1131.25 516.25 C 1124.90 520.09 1120.56 525.53 1113.75 530.75 C 1106.95 535.97 1103.15 542.33 1097.25 548.25 C 1091.35 554.16 1085.70 559.54 1082.08 567.08 C 1078.45 574.61 1073.45 581.25 1070.07 589.07 C 1066.69 596.90 1059.85 603.20 1051.97 601.03 C 1044.09 598.86 1033.66 597.48 1025.98 595.02 C 1018.29 592.57 1009.52 590.01 1000.92 588.08 C 992.33 586.14 982.62 587.32 974.26 585.40 C 965.90 583.48 958.74 583.26 949.00 583.00
C 945.74 587.79 938.54 585.32 932.98 588.02 C 927.41 590.73 919.94 594.88 913.99 596.99 C 908.04 599.10 901.82 605.93 896.00 605.00
C 894.04 613.53 880.81 609.80 881.00 618.00
C 877.38 612.25 875.16 621.93 869.00 621.00
C 869.50 636.50 894.59 644.65 905.00 633.00
C 908.47 634.36 912.50 634.30 916.00 633.00
C 922.46 644.94 932.23 655.63 941.30 666.70 C 950.37 677.76 960.07 687.78 969.00 698.00
C 960.00 704.20 947.63 701.77 936.00 702.00 C 924.37 702.23 911.34 702.47 900.00 701.00
C 882.64 672.74 839.12 689.48 823.00 658.00
C 810.69 660.50 807.95 675.35 794.98 677.98 C 782.00 680.60 769.53 663.99 758.00 676.00
C 756.62 683.33 753.30 690.18 753.00 699.00
C 738.83 698.81 726.90 701.45 714.00 702.00 C 701.10 702.55 684.41 702.79 672.00 700.00 C 659.59 697.21 672.93 680.62 679.97 674.97 C 687.01 669.32 692.43 657.45 701.70 652.70 C 710.96 647.95 732.74 650.72 744.00 650.00
C 755.57 639.45 768.25 626.62 780.00 619.00
C 773.10 609.73 762.70 607.01 754.25 599.75 C 745.80 592.48 732.21 591.13 724.00 585.00
C 717.37 589.94 711.56 580.47 704.92 580.08 C 698.27 579.69 693.60 573.96 687.00 572.00
C 687.56 567.78 683.28 565.23 684.00 561.00
C 668.78 560.89 648.64 563.09 633.99 562.99 C 619.35 562.89 605.20 565.15 589.00 564.00 C 572.80 562.85 554.29 565.98 539.33 565.67 C 524.37 565.36 521.95 547.12 509.00 547.00
C 508.13 540.47 499.30 536.91 500.00 530.00 C 500.71 523.09 505.56 518.20 504.00 512.00
C 510.43 506.92 512.71 497.89 516.33 490.33 C 519.94 482.77 524.58 475.70 524.00 468.00
C 529.94 460.95 532.62 448.92 534.78 437.78 C 536.93 426.63 539.27 411.89 541.67 401.33 C 544.06 390.77 547.17 374.07 535.00 370.00
C 536.65 366.80 536.20 362.72 532.00 362.00
C 534.08 352.60 524.96 343.80 528.00 333.00
C 521.32 325.48 513.01 319.64 504.75 312.25 C 496.50 304.86 488.80 297.98 482.00 291.00
C 474.69 289.82 469.01 281.84 462.25 277.75 C 455.48 273.66 447.96 266.54 441.00 267.00
C 443.23 259.93 434.00 265.19 435.00 260.00
C 431.83 260.07 428.98 261.73 430.00 257.00
C 426.17 257.23 422.58 259.31 422.00 254.00
C 414.82 252.85 403.48 253.79 398.00 249.00
C 389.86 249.02 384.25 252.40 377.00 252.00
C 374.13 258.15 364.37 255.89 362.00 263.00
C 359.45 258.50 356.48 262.33 352.97 263.97 C 349.47 265.61 341.72 264.64 342.00 270.00
C 339.02 268.69 332.59 266.21 333.00 272.00
C 326.33 269.73 322.33 273.58 316.77 274.21 C 311.21 274.85 304.57 278.90 298.92 279.92 C 293.27 280.94 288.03 282.16 283.75 285.19 C 279.46 288.21 272.75 289.52 267.77 292.77 C 262.79 296.02 258.20 299.34 252.75 301.75 C 247.31 304.17 243.62 309.06 238.71 311.71 C 233.79 314.35 229.82 318.90 225.70 322.70 C 221.58 326.50 217.32 330.08 213.25 334.25 C 209.19 338.43 207.46 344.44 203.67 348.67 C 199.89 352.91 195.18 354.30 190.25 359.25 C 185.32 364.19 177.21 362.02 170.00 363.00 C 162.79 363.98 156.83 360.92 150.78 360.22 C 144.73 359.52 139.15 356.64 135.25 351.75 C 131.34 346.87 128.57 342.66 125.08 337.92 C 121.60 333.18 123.28 321.72 118.00 322.00
C 118.98 319.87 120.01 314.23 116.00 317.00
C 110.47 302.19 119.32 286.02 129.30 277.30 C 139.29 268.59 146.43 258.83 155.78 249.78 C 165.12 240.72 175.48 232.14 181.75 220.75 C 188.02 209.36 196.87 198.09 204.25 187.25 C 211.62 176.41 214.68 162.40 225.75 153.75 C 236.83 145.10 243.78 134.44 252.75 124.75 C 261.73 115.06 270.55 105.72 281.25 98.25 C 291.95 90.77 303.85 84.27 311.77 72.77 C 319.69 61.27 326.05 52.27 336.75 42.75 C 347.45 33.23 355.87 26.08 369.00 21.00
M 766.00 919.00 
C 761.88 927.70 756.98 939.23 747.00 942.00
C 736.57 932.40 720.66 932.68 705.00 931.00 C 689.34 929.32 671.56 940.89 679.00 958.00
C 680.72 952.38 682.39 959.19 683.00 962.00
C 696.04 966.77 711.08 967.90 725.22 970.78 C 739.36 973.66 750.42 974.63 762.75 985.25 C 775.08 995.86 771.70 1013.15 773.00 1027.00
C 769.01 1030.80 766.39 1039.81 760.30 1044.30 C 754.21 1048.80 749.13 1054.32 740.77 1054.77 C 732.41 1055.22 724.01 1058.49 716.00 1058.00 C 707.98 1057.51 699.12 1059.03 690.98 1057.02 C 682.84 1055.02 675.75 1056.17 667.93 1052.07 C 660.10 1047.98 654.92 1048.05 646.78 1043.22 C 638.63 1038.40 648.49 1033.35 651.19 1026.75 C 653.90 1020.16 663.17 1019.97 669.22 1025.78 C 675.28 1031.58 684.28 1030.69 692.01 1032.99 C 699.74 1035.29 709.45 1032.25 718.00 1033.00 C 726.55 1033.75 735.13 1033.20 740.25 1027.25 C 745.37 1021.29 747.75 1011.65 742.25 1004.75 C 736.74 997.86 729.93 996.80 721.92 995.08 C 713.92 993.36 704.70 993.37 696.97 991.98 C 689.25 990.59 680.84 988.34 673.78 985.22 C 666.72 982.10 660.61 977.98 655.89 972.11 C 651.17 966.23 651.30 958.00 650.00 950.00 C 648.71 942.00 652.76 932.34 656.30 926.30 C 659.84 920.25 664.65 914.32 672.03 912.03 C 679.40 909.74 686.61 907.13 695.01 907.01 C 703.40 906.89 713.49 906.79 722.00 906.00 C 730.51 905.21 735.47 909.97 743.25 910.76 C 751.02 911.54 758.42 916.93 766.00 919.00
M 1808.00 988.00 
C 1808.01 983.72 1804.30 975.01 1809.00 972.00
C 1814.31 968.60 1823.06 973.42 1830.00 972.00 C 1836.94 970.58 1846.55 972.74 1854.00 972.00 C 1861.45 971.26 1870.41 972.56 1878.00 972.00
C 1877.42 998.19 1881.12 1030.63 1857.25 1046.25 C 1833.37 1061.87 1803.37 1058.58 1776.00 1055.00
C 1773.49 1050.93 1764.25 1050.68 1759.25 1045.75 C 1754.25 1040.82 1750.45 1034.63 1744.00 1032.00
C 1741.78 1024.18 1739.23 1015.97 1737.01 1006.99 C 1734.79 998.01 1735.33 986.42 1735.00 976.00 C 1734.67 965.58 1737.56 956.37 1740.32 947.32 C 1743.09 938.27 1747.58 931.77 1754.04 926.04 C 1760.49 920.30 1765.99 915.12 1774.25 912.25 C 1782.50 909.37 1793.61 906.97 1802.00 907.00 C 1810.40 907.03 1821.79 905.25 1829.70 907.31 C 1837.61 909.37 1845.60 911.67 1853.07 914.93 C 1860.54 918.18 1869.99 925.79 1863.25 931.25 C 1856.52 936.72 1852.65 948.91 1844.26 942.74 C 1835.87 936.58 1829.09 933.67 1820.00 934.00 C 1810.90 934.32 1802.32 932.20 1793.33 933.33 C 1784.33 934.46 1777.66 940.64 1772.08 947.08 C 1766.50 953.52 1765.15 963.84 1763.01 972.01 C 1760.86 980.18 1762.07 993.30 1764.32 1001.68 C 1766.57 1010.05 1768.37 1015.42 1773.75 1022.25 C 1779.13 1029.09 1787.71 1031.65 1796.00 1033.00 C 1804.30 1034.35 1814.69 1033.26 1824.07 1033.07 C 1833.46 1032.89 1839.64 1028.33 1844.90 1020.90 C 1850.17 1013.47 1849.07 1003.57 1850.00 995.00
C 1835.67 995.00 1821.33 995.00 1807.00 995.00
C 1807.52 992.80 1805.86 989.38 1808.00 988.00
M 1244.00 908.00 
C 1247.56 911.95 1245.68 918.74 1249.33 922.67 C 1252.97 926.61 1250.92 933.08 1257.00 933.00
C 1252.83 939.78 1261.37 947.71 1262.77 955.23 C 1264.17 962.75 1268.87 969.28 1271.92 977.08 C 1274.98 984.87 1277.00 993.76 1280.78 1001.22 C 1284.55 1008.68 1285.58 1019.18 1292.00 1023.00
C 1288.69 1024.39 1291.13 1027.32 1291.00 1030.00
C 1295.86 1030.53 1294.70 1038.90 1297.31 1042.69 C 1299.91 1046.49 1302.82 1051.61 1301.00 1056.00
C 1291.12 1052.58 1280.61 1058.76 1272.00 1054.00
C 1272.66 1051.64 1273.13 1046.21 1269.00 1047.00
C 1271.35 1040.82 1264.80 1036.87 1266.00 1031.00
C 1242.51 1028.73 1216.22 1029.77 1192.00 1031.00
C 1194.21 1038.76 1187.03 1039.98 1186.30 1046.30 C 1185.57 1052.62 1183.15 1057.26 1175.78 1055.78 C 1168.41 1054.29 1164.17 1057.44 1157.00 1055.00
C 1164.76 1031.02 1177.52 1008.21 1184.00 983.00
C 1190.36 980.50 1189.24 970.01 1192.00 963.00
C 1196.68 963.99 1194.64 958.36 1194.00 956.00
C 1199.41 954.29 1199.16 944.98 1202.70 940.70 C 1206.25 936.43 1202.54 927.92 1210.00 926.00
C 1207.78 920.94 1213.74 913.32 1216.00 907.00
C 1224.84 909.28 1234.75 907.37 1244.00 908.00
M 176.00 1053.00 
C 172.22 1047.55 175.69 1035.28 175.00 1028.00 C 174.31 1020.72 176.50 1010.48 176.00 1003.00
C 174.97 999.51 174.45 983.99 175.00 979.00 C 175.55 974.01 176.99 956.21 171.77 958.79 C 166.55 961.37 167.23 975.51 163.25 980.25 C 159.26 984.98 160.90 995.09 156.70 1000.70 C 152.49 1006.30 149.73 1013.78 147.25 1020.25 C 144.76 1026.71 139.37 1034.81 142.00 1041.00
C 136.94 1039.53 136.21 1044.72 138.00 1048.00
C 133.57 1046.91 135.36 1052.48 135.00 1055.00
C 128.66 1054.63 110.64 1058.52 108.08 1049.92 C 105.52 1041.32 101.79 1033.99 99.34 1026.32 C 96.89 1018.66 93.67 1013.47 90.03 1004.98 C 86.38 996.48 83.99 988.04 80.01 979.99 C 76.03 971.95 74.42 962.73 69.00 956.00
C 67.90 988.34 68.94 1021.71 69.00 1055.00
C 54.30 1058.15 40.93 1057.46 43.00 1041.00 C 45.07 1024.54 42.10 1011.56 43.00 996.00 C 43.90 980.44 42.73 967.11 43.00 952.00 C 43.27 936.89 43.60 922.56 42.00 908.00
C 54.17 910.31 67.42 908.35 80.00 909.00
C 81.67 917.03 87.13 923.89 87.00 931.00
C 92.08 934.94 92.42 942.24 94.99 949.01 C 97.57 955.78 101.98 962.21 104.75 968.25 C 107.51 974.30 108.50 981.09 110.93 988.07 C 113.35 995.05 117.98 1001.70 119.00 1009.00
C 121.97 1007.89 123.41 1010.90 126.00 1011.00
C 127.07 1003.32 131.48 997.05 133.78 989.78 C 136.08 982.51 139.32 975.36 142.75 968.75 C 146.19 962.15 146.37 951.33 152.00 948.00
C 151.34 940.72 155.57 936.33 157.93 929.93 C 160.29 923.52 161.97 919.46 164.92 912.92 C 167.88 906.39 178.54 909.62 185.00 909.00 C 191.46 908.38 203.96 907.23 202.99 916.01 C 202.02 924.78 201.92 930.58 202.00 939.00 C 202.08 947.42 202.01 954.90 202.00 963.00 C 201.99 971.10 202.11 979.16 202.00 987.00 C 201.89 994.84 202.27 1004.59 202.00 1012.00 C 201.73 1019.41 202.63 1029.63 202.00 1036.00 C 201.37 1042.37 205.03 1055.68 198.32 1055.66 C 191.61 1055.64 180.56 1055.93 176.00 1053.00
M 390.00 909.00 
C 389.76 931.01 390.32 957.43 390.00 979.00 C 389.68 1000.57 388.96 1020.19 408.00 1032.00
C 414.65 1029.60 426.17 1035.16 435.00 1033.00 C 443.83 1030.84 448.65 1032.34 456.74 1026.74 C 464.84 1021.14 464.58 1012.21 466.00 1003.00 C 467.42 993.79 466.46 982.82 466.00 973.00 C 465.54 963.18 465.50 951.08 466.00 941.00 C 466.50 930.92 467.71 919.52 467.00 909.00
C 475.67 909.00 484.33 909.00 493.00 909.00
C 495.32 935.50 492.70 968.81 494.00 995.00 C 495.30 1021.19 488.02 1043.17 464.78 1052.78 C 441.54 1062.39 417.00 1056.71 395.00 1056.00
C 389.72 1049.90 381.17 1050.28 374.75 1042.25 C 368.33 1034.21 365.51 1027.76 363.67 1017.33 C 361.83 1006.90 361.81 993.56 362.00 982.00 C 362.19 970.44 361.90 957.88 362.00 946.00 C 362.10 934.12 361.93 921.00 362.00 909.00
C 370.60 909.37 380.73 908.74 390.00 909.00
M 987.00 1055.00 
C 983.97 1057.94 978.71 1054.35 975.32 1055.34 C 971.93 1056.32 964.41 1056.68 962.00 1055.00
C 959.87 1055.31 961.25 1039.67 961.00 1037.00
C 957.64 1021.32 962.80 1001.84 961.00 985.00 C 959.20 968.16 960.39 950.28 960.00 934.00
C 942.67 934.00 925.33 934.00 908.00 934.00
C 908.44 926.38 907.70 917.28 908.00 909.00
C 918.52 909.01 928.42 908.99 939.00 909.00 C 949.58 909.01 960.31 908.98 971.00 909.00 C 981.69 909.02 992.19 908.95 1003.00 909.00 C 1013.81 909.05 1023.97 908.90 1035.00 909.00 C 1046.03 909.10 1039.22 926.54 1040.00 934.00
C 1031.33 934.62 1019.34 933.18 1011.00 934.00 C 1002.66 934.82 988.16 929.91 988.00 940.00 C 987.84 950.09 988.12 959.17 988.00 969.00 C 987.88 978.83 988.15 988.33 988.00 998.00 C 987.85 1007.67 988.28 1017.48 988.00 1027.00 C 987.72 1036.52 989.04 1046.39 987.00 1055.00
M 1582.00 1054.00 
C 1580.20 1057.64 1560.55 1056.68 1557.00 1055.00
C 1549.29 1051.35 1543.77 1037.99 1537.25 1030.75 C 1530.72 1023.52 1525.97 1012.01 1519.25 1004.75 C 1512.53 997.50 1506.54 987.73 1500.70 979.31 C 1494.85 970.88 1487.50 962.19 1482.00 953.00
C 1476.10 961.65 1479.72 973.91 1479.00 985.00 C 1478.28 996.09 1479.38 1008.63 1479.00 1020.00 C 1478.62 1031.37 1479.28 1043.56 1479.00 1055.00
C 1470.74 1057.55 1467.72 1053.91 1458.93 1055.07 C 1450.14 1056.24 1451.53 1047.01 1451.98 1038.98 C 1452.42 1030.94 1450.24 1021.62 1451.00 1013.00 C 1451.76 1004.38 1450.59 994.75 1451.00 986.00 C 1451.41 977.26 1450.67 967.70 1451.00 959.00 C 1451.33 950.30 1450.38 940.70 1451.33 932.33 C 1452.28 923.96 1450.96 917.07 1451.00 909.00
C 1460.77 910.11 1479.41 905.50 1485.30 913.70 C 1491.20 921.89 1496.30 928.87 1502.70 936.30 C 1509.10 943.72 1512.59 951.83 1518.92 959.08 C 1525.25 966.33 1529.60 974.96 1535.30 982.70 C 1541.01 990.43 1545.92 998.12 1552.00 1006.00
C 1557.24 997.73 1554.06 987.67 1555.00 977.00 C 1555.94 966.33 1554.51 953.99 1555.00 943.00 C 1555.49 932.01 1554.63 920.07 1555.00 909.00
C 1564.00 909.00 1573.00 909.00 1582.00 909.00
C 1582.00 957.34 1582.00 1005.67 1582.00 1054.00 Z"/>
</g>
<g fill="#23201F" fill-opacity="1.00" stroke="None">
<path d="
M 369.00 21.00 
C 355.87 26.08 347.45 33.23 336.75 42.75 C 326.05 52.27 319.69 61.27 311.77 72.77 C 303.85 84.27 291.95 90.77 281.25 98.25 C 270.55 105.72 261.73 115.06 252.75 124.75 C 243.78 134.44 236.83 145.10 225.75 153.75 C 214.68 162.40 211.62 176.41 204.25 187.25 C 196.87 198.09 188.02 209.36 181.75 220.75 C 175.48 232.14 165.12 240.72 155.78 249.78 C 146.43 258.83 139.29 268.59 129.30 277.30 C 119.32 286.02 110.47 302.19 116.00 317.00
C 120.01 314.23 118.98 319.87 118.00 322.00
C 123.28 321.72 121.60 333.18 125.08 337.92 C 128.57 342.66 131.34 346.87 135.25 351.75 C 139.15 356.64 144.73 359.52 150.78 360.22 C 156.83 360.92 162.79 363.98 170.00 363.00 C 177.21 362.02 185.32 364.19 190.25 359.25 C 195.18 354.30 199.89 352.91 203.67 348.67 C 207.46 344.44 209.19 338.43 213.25 334.25 C 217.32 330.08 221.58 326.50 225.70 322.70 C 229.82 318.90 233.79 314.35 238.71 311.71 C 243.62 309.06 247.31 304.17 252.75 301.75 C 258.20 299.34 262.79 296.02 267.77 292.77 C 272.75 289.52 279.46 288.21 283.75 285.19 C 288.03 282.16 293.27 280.94 298.92 279.92 C 304.57 278.90 311.21 274.85 316.77 274.21 C 322.33 273.58 326.33 269.73 333.00 272.00
C 332.59 266.21 339.02 268.69 342.00 270.00
C 341.72 264.64 349.47 265.61 352.97 263.97 C 356.48 262.33 359.45 258.50 362.00 263.00
C 364.37 255.89 374.13 258.15 377.00 252.00
C 384.25 252.40 389.86 249.02 398.00 249.00
C 403.48 253.79 414.82 252.85 422.00 254.00
C 422.58 259.31 426.17 257.23 430.00 257.00
C 428.98 261.73 431.83 260.07 435.00 260.00
C 434.00 265.19 443.23 259.93 441.00 267.00
C 447.96 266.54 455.48 273.66 462.25 277.75 C 469.01 281.84 474.69 289.82 482.00 291.00
C 488.80 297.98 496.50 304.86 504.75 312.25 C 513.01 319.64 521.32 325.48 528.00 333.00
C 524.96 343.80 534.08 352.60 532.00 362.00
C 536.20 362.72 536.65 366.80 535.00 370.00
C 547.17 374.07 544.06 390.77 541.67 401.33 C 539.27 411.89 536.93 426.63 534.78 437.78 C 532.62 448.92 529.94 460.95 524.00 468.00
C 524.58 475.70 519.94 482.77 516.33 490.33 C 512.71 497.89 510.43 506.92 504.00 512.00
C 505.56 518.20 500.71 523.09 500.00 530.00 C 499.30 536.91 508.13 540.47 509.00 547.00
C 521.95 547.12 524.37 565.36 539.33 565.67 C 554.29 565.98 572.80 562.85 589.00 564.00 C 605.20 565.15 619.35 562.89 633.99 562.99 C 648.64 563.09 668.78 560.89 684.00 561.00
C 683.28 565.23 687.56 567.78 687.00 572.00
C 693.60 573.96 698.27 579.69 704.92 580.08 C 711.56 580.47 717.37 589.94 724.00 585.00
C 732.21 591.13 745.80 592.48 754.25 599.75 C 762.70 607.01 773.10 609.73 780.00 619.00
C 768.25 626.62 755.57 639.45 744.00 650.00
C 732.74 650.72 710.96 647.95 701.70 652.70 C 692.43 657.45 687.01 669.32 679.97 674.97 C 672.93 680.62 659.59 697.21 672.00 700.00 C 684.41 702.79 701.10 702.55 714.00 702.00 C 726.90 701.45 738.83 698.81 753.00 699.00
C 753.30 690.18 756.62 683.33 758.00 676.00
C 769.53 663.99 782.00 680.60 794.98 677.98 C 807.95 675.35 810.69 660.50 823.00 658.00
C 839.12 689.48 882.64 672.74 900.00 701.00
C 911.34 702.47 924.37 702.23 936.00 702.00 C 947.63 701.77 960.00 704.20 969.00 698.00
C 960.07 687.78 950.37 677.76 941.30 666.70 C 932.23 655.63 922.46 644.94 916.00 633.00
C 912.50 634.30 908.47 634.36 905.00 633.00
C 894.59 644.65 869.50 636.50 869.00 621.00
C 875.16 621.93 877.38 612.25 881.00 618.00
C 880.81 609.80 894.04 613.53 896.00 605.00
C 901.82 605.93 908.04 599.10 913.99 596.99 C 919.94 594.88 927.41 590.73 932.98 588.02 C 938.54 585.32 945.74 587.79 949.00 583.00
C 958.74 583.26 965.90 583.48 974.26 585.40 C 982.62 587.32 992.33 586.14 1000.92 588.08 C 1009.52 590.01 1018.29 592.57 1025.98 595.02 C 1033.66 597.48 1044.09 598.86 1051.97 601.03 C 1059.85 603.20 1066.69 596.90 1070.07 589.07 C 1073.45 581.25 1078.45 574.61 1082.08 567.08 C 1085.70 559.54 1091.35 554.16 1097.25 548.25 C 1103.15 542.33 1106.95 535.97 1113.75 530.75 C 1120.56 525.53 1124.90 520.09 1131.25 516.25 C 1137.61 512.42 1147.79 509.81 1154.77 505.77 C 1161.75 501.73 1171.00 498.98 1178.30 495.30 C 1185.61 491.63 1194.15 487.86 1200.99 483.99 C 1207.83 480.12 1214.90 476.58 1221.75 472.75 C 1228.60 468.93 1234.48 462.68 1241.30 458.30 C 1248.12 453.92 1252.69 446.58 1259.77 442.77 C 1266.85 438.96 1271.62 431.95 1278.25 427.25 C 1284.87 422.55 1288.15 414.83 1293.74 408.74 C 1299.34 402.66 1303.24 395.69 1309.75 390.75 C 1316.25 385.80 1317.45 376.02 1323.75 370.75 C 1330.06 365.48 1328.90 350.53 1336.00 351.00
C 1333.69 346.85 1336.70 342.27 1341.00 341.00
C 1341.22 332.44 1347.00 326.89 1352.25 320.25 C 1357.50 313.61 1365.81 310.86 1373.99 309.99 C 1382.17 309.13 1393.80 306.33 1401.08 308.91 C 1408.37 311.50 1414.21 311.15 1423.00 311.00 C 1431.79 310.85 1440.92 311.59 1450.00 311.00 C 1459.08 310.41 1468.67 311.77 1476.92 309.92 C 1485.18 308.08 1492.07 305.94 1499.75 302.75 C 1507.43 299.57 1510.37 292.54 1516.75 287.75 C 1523.13 282.97 1526.15 275.14 1530.25 269.25 C 1534.34 263.36 1537.40 253.08 1542.00 254.00
C 1542.93 244.87 1552.30 239.93 1561.00 238.00 C 1569.70 236.07 1582.88 242.75 1590.75 244.25 C 1598.62 245.74 1606.91 251.54 1616.00 253.00 C 1625.09 254.46 1634.52 255.86 1643.32 257.68 C 1652.13 259.50 1664.53 263.48 1673.77 262.77 C 1683.02 262.06 1693.50 264.51 1704.00 263.00 C 1714.50 261.49 1725.91 262.27 1735.00 260.00 C 1744.09 257.73 1753.81 256.98 1761.70 254.70 C 1769.60 252.43 1778.87 246.44 1786.75 243.80 C 1794.63 241.17 1800.05 237.44 1807.25 232.25 C 1814.44 227.06 1819.84 221.12 1826.25 215.25 C 1832.65 209.37 1836.44 199.63 1843.00 196.00
C 1844.19 187.28 1849.55 174.77 1850.07 165.07 C 1850.60 155.38 1853.04 137.71 1845.25 131.76 C 1837.45 125.80 1828.14 141.34 1820.25 143.25 C 1812.35 145.15 1804.06 153.52 1794.70 155.69 C 1785.33 157.87 1777.44 161.64 1768.01 163.01 C 1758.58 164.37 1748.19 166.85 1738.00 167.00 C 1727.81 167.15 1711.55 164.71 1701.07 163.93 C 1690.60 163.15 1678.18 161.11 1671.00 155.00
C 1663.24 158.20 1657.14 151.42 1649.00 151.00 C 1640.86 150.57 1631.99 143.90 1624.00 146.00
C 1618.24 138.59 1605.68 143.17 1599.00 136.00
C 1587.25 134.72 1575.15 134.13 1563.22 131.78 C 1551.30 129.42 1538.80 127.03 1526.00 126.00 C 1513.20 124.97 1498.90 129.07 1488.08 131.93 C 1477.25 134.79 1471.23 139.44 1461.08 146.08 C 1450.92 152.71 1446.75 162.70 1439.00 169.00
C 1441.82 171.08 1440.61 175.01 1437.00 175.00
C 1436.91 177.82 1438.67 180.06 1438.00 183.00
C 1433.54 186.50 1434.90 195.34 1432.40 200.25 C 1429.89 205.15 1432.69 212.97 1430.99 218.99 C 1429.30 225.01 1428.71 229.12 1427.99 234.99 C 1427.27 240.87 1420.07 243.20 1418.00 247.00
C 1410.33 247.99 1401.36 247.76 1394.22 245.78 C 1387.08 243.80 1382.30 240.42 1376.22 236.78 C 1370.14 233.13 1366.66 230.10 1361.25 226.75 C 1355.83 223.40 1350.52 219.79 1345.75 216.25 C 1340.98 212.71 1335.44 210.21 1330.70 206.30 C 1325.96 202.39 1318.58 199.62 1314.08 195.92 C 1309.59 192.22 1302.87 187.24 1300.00 188.00
C 1298.94 185.12 1295.75 183.52 1295.00 181.00
C 1290.87 183.31 1288.20 179.67 1287.00 176.00
C 1282.68 177.04 1276.67 173.00 1275.00 169.00
C 1265.44 169.12 1256.88 156.45 1247.00 157.00
C 1245.60 154.30 1244.03 152.15 1241.00 154.00
C 1238.96 149.10 1232.48 148.47 1228.23 147.77 C 1223.98 147.07 1219.86 143.99 1216.08 142.07 C 1212.29 140.15 1205.63 141.65 1202.29 138.71 C 1198.96 135.76 1190.43 138.97 1192.00 133.00
C 1185.14 135.51 1177.90 132.57 1171.67 131.67 C 1165.44 130.76 1159.15 129.30 1153.02 128.98 C 1146.90 128.66 1140.64 124.42 1134.00 126.00 C 1127.37 127.57 1120.72 123.28 1118.00 122.00
C 1110.04 122.66 1099.25 124.07 1091.03 124.97 C 1082.81 125.86 1076.39 122.33 1068.69 123.65 C 1061.00 124.96 1050.24 124.37 1041.00 126.00 C 1031.76 127.63 1021.64 126.92 1012.74 128.74 C 1003.84 130.57 993.49 133.02 984.00 134.00 C 974.51 134.98 969.54 135.75 960.01 137.01 C 950.47 138.27 942.26 140.17 932.67 141.67 C 923.08 143.17 913.63 141.51 904.07 144.07 C 894.51 146.64 882.82 144.41 873.00 145.00 C 863.18 145.59 852.99 144.35 844.00 143.00 C 835.01 141.65 821.93 141.97 813.22 139.78 C 804.51 137.59 797.80 139.59 789.74 137.60 C 781.68 135.61 774.58 135.90 769.00 132.00
C 762.78 133.09 753.60 135.08 750.00 128.00
C 754.49 129.35 755.38 128.40 754.00 124.00
C 761.49 124.15 769.82 119.06 776.75 114.75 C 783.69 110.45 789.22 107.48 793.00 100.00
C 785.83 94.46 763.82 101.42 760.01 92.01 C 756.20 82.59 776.11 78.97 781.00 77.00
C 784.67 67.24 796.73 72.04 803.25 61.25 C 809.76 50.46 790.65 50.38 781.00 51.00 C 771.35 51.62 757.91 53.29 748.01 53.01 C 738.11 52.73 727.32 54.18 717.00 56.00 C 706.68 57.82 697.71 56.82 687.00 58.00 C 676.29 59.18 663.05 57.23 653.00 57.00
C 652.10 54.08 646.12 50.64 648.07 46.07 C 650.03 41.50 649.25 37.71 654.00 39.00
C 651.26 35.08 656.44 34.49 656.00 31.00
C 644.60 31.72 631.59 30.85 621.01 32.01 C 610.43 33.16 600.13 36.06 591.08 37.94 C 582.04 39.81 574.32 44.18 566.00 42.00
C 558.89 48.45 549.18 47.35 540.08 51.94 C 530.99 56.52 521.40 53.21 511.08 57.08 C 500.75 60.94 488.29 55.35 495.00 41.00
C 500.19 38.43 505.05 30.47 506.00 24.00
C 497.70 24.23 488.19 29.14 481.10 32.10 C 474.01 35.06 466.93 36.75 459.75 40.75 C 452.58 44.76 445.15 48.12 437.67 51.67 C 430.20 55.22 423.56 58.01 416.00 62.00 C 408.44 65.99 402.06 65.23 397.00 71.00
C 388.09 71.09 378.30 78.26 368.00 79.00
C 365.58 60.30 377.16 39.08 369.00 21.00
M 766.00 439.00 
C 771.64 437.81 780.14 436.70 788.00 437.00 C 795.86 437.30 804.84 437.31 812.00 438.00
C 820.86 437.14 831.23 436.31 839.00 439.00
C 842.05 432.75 851.65 434.59 858.23 432.23 C 864.81 429.87 874.20 428.65 881.00 429.00
C 884.45 424.56 892.69 424.96 898.68 423.66 C 904.67 422.37 912.15 415.81 918.00 419.00
C 926.43 411.72 939.96 411.86 950.08 406.94 C 960.20 402.01 969.03 399.04 979.08 395.94 C 989.14 392.83 1002.03 388.33 1013.00 385.00
C 1013.33 388.53 1009.66 393.48 1013.00 396.00
C 1006.31 398.86 1010.96 407.45 1004.00 410.00
C 1004.05 412.86 1005.89 417.67 1001.00 417.00
C 1001.13 423.03 999.59 429.49 995.00 433.00
C 996.18 435.73 997.79 439.85 993.00 440.00
C 993.84 449.14 984.87 457.53 985.00 466.00
C 977.54 472.52 974.32 482.75 967.68 490.68 C 961.03 498.61 954.84 506.87 949.20 514.25 C 943.56 521.63 936.46 534.43 926.00 535.00
C 923.88 528.47 912.40 533.48 905.00 533.00 C 897.60 532.52 887.68 534.31 880.00 536.00
C 878.35 542.97 869.19 548.62 862.92 552.92 C 856.65 557.22 850.89 565.45 843.00 567.00
C 842.33 571.17 835.22 575.73 830.77 579.77 C 826.32 583.81 819.80 587.29 816.00 592.00
C 813.76 587.99 805.00 586.97 811.00 583.00
C 803.60 585.26 800.34 577.87 795.25 572.75 C 790.16 567.64 784.58 564.66 781.23 557.77 C 777.88 550.88 772.08 547.33 784.08 542.08 C 796.08 536.83 804.14 517.97 819.00 521.00
C 822.25 515.73 831.11 516.54 835.75 512.74 C 840.39 508.94 844.76 501.84 850.00 499.00
C 847.90 496.11 851.71 489.68 855.00 492.00
C 852.92 484.36 863.98 481.90 862.00 473.00
C 854.00 474.05 843.26 471.20 835.93 471.07 C 828.59 470.94 822.29 469.21 814.99 470.01 C 807.69 470.81 799.12 465.71 792.99 467.99 C 786.87 470.28 788.16 483.49 785.22 488.22 C 782.28 492.96 778.03 497.78 776.00 501.00
C 769.77 495.00 760.73 499.66 752.00 498.00
C 748.62 486.68 747.38 475.35 746.00 464.00
C 750.24 467.67 746.19 457.16 748.93 453.93 C 751.66 450.69 751.24 444.05 750.00 440.00
C 754.67 440.24 760.30 438.02 766.00 439.00
M 610.00 451.00 
C 625.63 473.78 648.20 489.07 659.00 514.00
C 656.26 515.76 655.87 515.71 653.00 514.00
C 652.02 519.55 643.11 516.37 638.00 517.00 C 632.89 517.63 627.24 516.04 622.00 517.00
C 620.10 510.56 610.94 518.69 609.00 511.00
C 598.38 511.68 589.28 504.37 586.89 494.11 C 584.51 483.85 594.94 473.27 595.00 465.00
C 599.97 463.07 600.28 457.57 601.00 453.00
C 604.05 454.18 608.00 453.60 610.00 451.00 Z"/>
</g>
<g fill="#000000" fill-opacity="0.00" stroke="None">
<path d="
M 812.00 438.00 
C 797.22 439.43 781.68 439.00 766.00 439.00
C 760.30 438.02 754.67 440.24 750.00 440.00
C 751.24 444.05 751.66 450.69 748.93 453.93 C 746.19 457.16 750.24 467.67 746.00 464.00
C 747.38 475.35 748.62 486.68 752.00 498.00
C 760.73 499.66 769.77 495.00 776.00 501.00
C 778.03 497.78 782.28 492.96 785.22 488.22 C 788.16 483.49 786.87 470.28 792.99 467.99 C 799.12 465.71 807.69 470.81 814.99 470.01 C 822.29 469.21 828.59 470.94 835.93 471.07 C 843.26 471.20 854.00 474.05 862.00 473.00
C 863.98 481.90 852.92 484.36 855.00 492.00
C 851.71 489.68 847.90 496.11 850.00 499.00
C 844.76 501.84 840.39 508.94 835.75 512.74 C 831.11 516.54 822.25 515.73 819.00 521.00
C 804.14 517.97 796.08 536.83 784.08 542.08 C 772.08 547.33 777.88 550.88 781.23 557.77 C 784.58 564.66 790.16 567.64 795.25 572.75 C 800.34 577.87 803.60 585.26 811.00 583.00
C 805.00 586.97 813.76 587.99 816.00 592.00
C 819.80 587.29 826.32 583.81 830.77 579.77 C 835.22 575.73 842.33 571.17 843.00 567.00
C 850.89 565.45 856.65 557.22 862.92 552.92 C 869.19 548.62 878.35 542.97 880.00 536.00
C 887.68 534.31 897.60 532.52 905.00 533.00 C 912.40 533.48 923.88 528.47 926.00 535.00
C 936.46 534.43 943.56 521.63 949.20 514.25 C 954.84 506.87 961.03 498.61 967.68 490.68 C 974.32 482.75 977.54 472.52 985.00 466.00
C 984.87 457.53 993.84 449.14 993.00 440.00
C 997.79 439.85 996.18 435.73 995.00 433.00
C 999.59 429.49 1001.13 423.03 1001.00 417.00
C 1005.89 417.67 1004.05 412.86 1004.00 410.00
C 1010.96 407.45 1006.31 398.86 1013.00 396.00
C 1009.66 393.48 1013.33 388.53 1013.00 385.00
C 1002.03 388.33 989.14 392.83 979.08 395.94 C 969.03 399.04 960.20 402.01 950.08 406.94 C 939.96 411.86 926.43 411.72 918.00 419.00
C 912.15 415.81 904.67 422.37 898.68 423.66 C 892.69 424.96 884.45 424.56 881.00 429.00
C 874.20 428.65 864.81 429.87 858.23 432.23 C 851.65 434.59 842.05 432.75 839.00 439.00
C 831.23 436.31 820.86 437.14 812.00 438.00 Z"/>
</g>
<g fill="#231F1E" fill-opacity="0.49" stroke="None">
<path d="
M 766.00 439.00 
C 781.68 439.00 797.22 439.43 812.00 438.00
C 804.84 437.31 795.86 437.30 788.00 437.00 C 780.14 436.70 771.64 437.81 766.00 439.00 Z"/>
</g>
<g fill="#000000" fill-opacity="0.00" stroke="None">
<path d="
M 610.00 451.00 
C 608.00 453.60 604.05 454.18 601.00 453.00
C 600.28 457.57 599.97 463.07 595.00 465.00
C 594.94 473.27 584.51 483.85 586.89 494.11 C 589.28 504.37 598.38 511.68 609.00 511.00
C 610.94 518.69 620.10 510.56 622.00 517.00
C 627.24 516.04 632.89 517.63 638.00 517.00 C 643.11 516.37 652.02 519.55 653.00 514.00
C 655.87 515.71 656.26 515.76 659.00 514.00
C 648.20 489.07 625.63 473.78 610.00 451.00 Z"/>
</g>
<g fill="#23201E" fill-opacity="0.95" stroke="None">
<path d="
M 766.00 919.00 
C 758.42 916.93 751.02 911.54 743.25 910.76 C 735.47 909.97 730.51 905.21 722.00 906.00 C 713.49 906.79 703.40 906.89 695.01 907.01 C 686.61 907.13 679.40 909.74 672.03 912.03 C 664.65 914.32 659.84 920.25 656.30 926.30 C 652.76 932.34 648.71 942.00 650.00 950.00 C 651.30 958.00 651.17 966.23 655.89 972.11 C 660.61 977.98 666.72 982.10 673.78 985.22 C 680.84 988.34 689.25 990.59 696.97 991.98 C 704.70 993.37 713.92 993.36 721.92 995.08 C 729.93 996.80 736.74 997.86 742.25 1004.75 C 747.75 1011.65 745.37 1021.29 740.25 1027.25 C 735.13 1033.20 726.55 1033.75 718.00 1033.00 C 709.45 1032.25 699.74 1035.29 692.01 1032.99 C 684.28 1030.69 675.28 1031.58 669.22 1025.78 C 663.17 1019.97 653.90 1020.16 651.19 1026.75 C 648.49 1033.35 638.63 1038.40 646.78 1043.22 C 654.92 1048.05 660.10 1047.98 667.93 1052.07 C 675.75 1056.17 682.84 1055.02 690.98 1057.02 C 699.12 1059.03 707.98 1057.51 716.00 1058.00 C 724.01 1058.49 732.41 1055.22 740.77 1054.77 C 749.13 1054.32 754.21 1048.80 760.30 1044.30 C 766.39 1039.81 769.01 1030.80 773.00 1027.00
C 771.70 1013.15 775.08 995.86 762.75 985.25 C 750.42 974.63 739.36 973.66 725.22 970.78 C 711.08 967.90 696.04 966.77 683.00 962.00
C 682.39 959.19 680.72 952.38 679.00 958.00
C 671.56 940.89 689.34 929.32 705.00 931.00 C 720.66 932.68 736.57 932.40 747.00 942.00
C 756.98 939.23 761.88 927.70 766.00 919.00 Z"/>
</g>
<g fill="#231F1E" fill-opacity="0.96" stroke="None">
<path d="
M 1809.00 972.00 
C 1809.34 977.38 1808.99 983.38 1808.00 988.00
C 1805.86 989.38 1807.52 992.80 1807.00 995.00
C 1821.33 995.00 1835.67 995.00 1850.00 995.00
C 1849.07 1003.57 1850.17 1013.47 1844.90 1020.90 C 1839.64 1028.33 1833.46 1032.89 1824.07 1033.07 C 1814.69 1033.26 1804.30 1034.35 1796.00 1033.00 C 1787.71 1031.65 1779.13 1029.09 1773.75 1022.25 C 1768.37 1015.42 1766.57 1010.05 1764.32 1001.68 C 1762.07 993.30 1760.86 980.18 1763.01 972.01 C 1765.15 963.84 1766.50 953.52 1772.08 947.08 C 1777.66 940.64 1784.33 934.46 1793.33 933.33 C 1802.32 932.20 1810.90 934.32 1820.00 934.00 C 1829.09 933.67 1835.87 936.58 1844.26 942.74 C 1852.65 948.91 1856.52 936.72 1863.25 931.25 C 1869.99 925.79 1860.54 918.18 1853.07 914.93 C 1845.60 911.67 1837.61 909.37 1829.70 907.31 C 1821.79 905.25 1810.40 907.03 1802.00 907.00 C 1793.61 906.97 1782.50 909.37 1774.25 912.25 C 1765.99 915.12 1760.49 920.30 1754.04 926.04 C 1747.58 931.77 1743.09 938.27 1740.32 947.32 C 1737.56 956.37 1734.67 965.58 1735.00 976.00 C 1735.33 986.42 1734.79 998.01 1737.01 1006.99 C 1739.23 1015.97 1741.78 1024.18 1744.00 1032.00
C 1750.45 1034.63 1754.25 1040.82 1759.25 1045.75 C 1764.25 1050.68 1773.49 1050.93 1776.00 1055.00
C 1803.37 1058.58 1833.37 1061.87 1857.25 1046.25 C 1881.12 1030.63 1877.42 998.19 1878.00 972.00
C 1870.41 972.56 1861.45 971.26 1854.00 972.00 C 1846.55 972.74 1836.94 970.58 1830.00 972.00 C 1823.06 973.42 1814.31 968.60 1809.00 972.00 Z"/>
</g>
<g fill="#221F1E" fill-opacity="0.95" stroke="None">
<path d="
M 1244.00 908.00 
C 1234.75 907.37 1224.84 909.28 1216.00 907.00
C 1213.74 913.32 1207.78 920.94 1210.00 926.00
C 1202.54 927.92 1206.25 936.43 1202.70 940.70 C 1199.16 944.98 1199.41 954.29 1194.00 956.00
C 1194.64 958.36 1196.68 963.99 1192.00 963.00
C 1189.24 970.01 1190.36 980.50 1184.00 983.00
C 1177.52 1008.21 1164.76 1031.02 1157.00 1055.00
C 1164.17 1057.44 1168.41 1054.29 1175.78 1055.78 C 1183.15 1057.26 1185.57 1052.62 1186.30 1046.30 C 1187.03 1039.98 1194.21 1038.76 1192.00 1031.00
C 1216.22 1029.77 1242.51 1028.73 1266.00 1031.00
C 1264.80 1036.87 1271.35 1040.82 1269.00 1047.00
C 1273.13 1046.21 1272.66 1051.64 1272.00 1054.00
C 1280.61 1058.76 1291.12 1052.58 1301.00 1056.00
C 1302.82 1051.61 1299.91 1046.49 1297.31 1042.69 C 1294.70 1038.90 1295.86 1030.53 1291.00 1030.00
C 1291.13 1027.32 1288.69 1024.39 1292.00 1023.00
C 1285.58 1019.18 1284.55 1008.68 1280.78 1001.22 C 1277.00 993.76 1274.98 984.87 1271.92 977.08 C 1268.87 969.28 1264.17 962.75 1262.77 955.23 C 1261.37 947.71 1252.83 939.78 1257.00 933.00
C 1250.92 933.08 1252.97 926.61 1249.33 922.67 C 1245.68 918.74 1247.56 911.95 1244.00 908.00
M 1238.00 971.00 
C 1246.02 971.62 1241.10 984.11 1248.00 986.00
C 1245.53 992.07 1252.03 996.70 1253.00 1005.00
C 1238.50 1005.11 1222.19 1004.92 1207.00 1005.00
C 1209.46 1002.30 1206.82 1001.15 1205.00 1000.00
C 1208.28 994.65 1209.12 990.08 1211.93 983.93 C 1214.73 977.78 1216.55 973.73 1218.92 966.92 C 1221.29 960.10 1225.34 959.40 1224.29 952.70 C 1223.24 946.00 1235.42 946.90 1233.22 954.22 C 1231.01 961.55 1242.92 963.13 1238.00 971.00 Z"/>
</g>
<g fill="#231F1E" fill-opacity="0.96" stroke="None">
<path d="
M 176.00 1003.00 
C 177.38 1007.68 176.54 1013.78 177.00 1019.00 C 177.46 1024.22 175.72 1031.13 177.00 1036.00 C 178.28 1040.87 174.66 1049.69 176.00 1053.00
C 180.56 1055.93 191.61 1055.64 198.32 1055.66 C 205.03 1055.68 201.37 1042.37 202.00 1036.00 C 202.63 1029.63 201.73 1019.41 202.00 1012.00 C 202.27 1004.59 201.89 994.84 202.00 987.00 C 202.11 979.16 201.99 971.10 202.00 963.00 C 202.01 954.90 202.08 947.42 202.00 939.00 C 201.92 930.58 202.02 924.78 202.99 916.01 C 203.96 907.23 191.46 908.38 185.00 909.00 C 178.54 909.62 167.88 906.39 164.92 912.92 C 161.97 919.46 160.29 923.52 157.93 929.93 C 155.57 936.33 151.34 940.72 152.00 948.00
C 146.37 951.33 146.19 962.15 142.75 968.75 C 139.32 975.36 136.08 982.51 133.78 989.78 C 131.48 997.05 127.07 1003.32 126.00 1011.00
C 123.41 1010.90 121.97 1007.89 119.00 1009.00
C 117.98 1001.70 113.35 995.05 110.93 988.07 C 108.50 981.09 107.51 974.30 104.75 968.25 C 101.98 962.21 97.57 955.78 94.99 949.01 C 92.42 942.24 92.08 934.94 87.00 931.00
C 87.13 923.89 81.67 917.03 80.00 909.00
C 67.42 908.35 54.17 910.31 42.00 908.00
C 43.60 922.56 43.27 936.89 43.00 952.00 C 42.73 967.11 43.90 980.44 43.00 996.00 C 42.10 1011.56 45.07 1024.54 43.00 1041.00 C 40.93 1057.46 54.30 1058.15 69.00 1055.00
C 68.94 1021.71 67.90 988.34 69.00 956.00
C 74.42 962.73 76.03 971.95 80.01 979.99 C 83.99 988.04 86.38 996.48 90.03 1004.98 C 93.67 1013.47 96.89 1018.66 99.34 1026.32 C 101.79 1033.99 105.52 1041.32 108.08 1049.92 C 110.64 1058.52 128.66 1054.63 135.00 1055.00
C 135.36 1052.48 133.57 1046.91 138.00 1048.00
C 136.21 1044.72 136.94 1039.53 142.00 1041.00
C 139.37 1034.81 144.76 1026.71 147.25 1020.25 C 149.73 1013.78 152.49 1006.30 156.70 1000.70 C 160.90 995.09 159.26 984.98 163.25 980.25 C 167.23 975.51 166.55 961.37 171.77 958.79 C 176.99 956.21 175.55 974.01 175.00 979.00 C 174.45 983.99 174.97 999.51 176.00 1003.00 Z"/>
</g>
<g fill="#231F1E" fill-opacity="0.96" stroke="None">
<path d="
M 390.00 909.00 
C 380.73 908.74 370.60 909.37 362.00 909.00
C 361.93 921.00 362.10 934.12 362.00 946.00 C 361.90 957.88 362.19 970.44 362.00 982.00 C 361.81 993.56 361.83 1006.90 363.67 1017.33 C 365.51 1027.76 368.33 1034.21 374.75 1042.25 C 381.17 1050.28 389.72 1049.90 395.00 1056.00
C 417.00 1056.71 441.54 1062.39 464.78 1052.78 C 488.02 1043.17 495.30 1021.19 494.00 995.00 C 492.70 968.81 495.32 935.50 493.00 909.00
C 484.33 909.00 475.67 909.00 467.00 909.00
C 467.71 919.52 466.50 930.92 466.00 941.00 C 465.50 951.08 465.54 963.18 466.00 973.00 C 466.46 982.82 467.42 993.79 466.00 1003.00 C 464.58 1012.21 464.84 1021.14 456.74 1026.74 C 448.65 1032.34 443.83 1030.84 435.00 1033.00 C 426.17 1035.16 414.65 1029.60 408.00 1032.00
C 388.96 1020.19 389.68 1000.57 390.00 979.00 C 390.32 957.43 389.76 931.01 390.00 909.00 Z"/>
</g>
<g fill="#221F1E" fill-opacity="0.96" stroke="None">
<path d="
M 961.00 1037.00 
C 962.09 1042.10 962.00 1048.23 962.00 1054.00
C 970.04 1053.26 979.76 1053.72 987.00 1055.00
C 989.04 1046.39 987.72 1036.52 988.00 1027.00 C 988.28 1017.48 987.85 1007.67 988.00 998.00 C 988.15 988.33 987.88 978.83 988.00 969.00 C 988.12 959.17 987.84 950.09 988.00 940.00 C 988.16 929.91 1002.66 934.82 1011.00 934.00 C 1019.34 933.18 1031.33 934.62 1040.00 934.00
C 1039.22 926.54 1046.03 909.10 1035.00 909.00 C 1023.97 908.90 1013.81 909.05 1003.00 909.00 C 992.19 908.95 981.69 909.02 971.00 909.00 C 960.31 908.98 949.58 909.01 939.00 909.00 C 928.42 908.99 918.52 909.01 908.00 909.00
C 907.70 917.28 908.44 926.38 908.00 934.00
C 925.33 934.00 942.67 934.00 960.00 934.00
C 960.39 950.28 959.20 968.16 961.00 985.00 C 962.80 1001.84 957.64 1021.32 961.00 1037.00 Z"/>
</g>
<g fill="#221F1E" fill-opacity="0.96" stroke="None">
<path d="
M 1557.00 1055.00 
C 1563.63 1056.41 1574.42 1051.86 1582.00 1054.00
C 1582.00 1005.67 1582.00 957.34 1582.00 909.00
C 1573.00 909.00 1564.00 909.00 1555.00 909.00
C 1554.63 920.07 1555.49 932.01 1555.00 943.00 C 1554.51 953.99 1555.94 966.33 1555.00 977.00 C 1554.06 987.67 1557.24 997.73 1552.00 1006.00
C 1545.92 998.12 1541.01 990.43 1535.30 982.70 C 1529.60 974.96 1525.25 966.33 1518.92 959.08 C 1512.59 951.83 1509.10 943.72 1502.70 936.30 C 1496.30 928.87 1491.20 921.89 1485.30 913.70 C 1479.41 905.50 1460.77 910.11 1451.00 909.00
C 1450.96 917.07 1452.28 923.96 1451.33 932.33 C 1450.38 940.70 1451.33 950.30 1451.00 959.00 C 1450.67 967.70 1451.41 977.26 1451.00 986.00 C 1450.59 994.75 1451.76 1004.38 1451.00 1013.00 C 1450.24 1021.62 1452.42 1030.94 1451.98 1038.98 C 1451.53 1047.01 1450.14 1056.24 1458.93 1055.07 C 1467.72 1053.91 1470.74 1057.55 1479.00 1055.00
C 1479.28 1043.56 1478.62 1031.37 1479.00 1020.00 C 1479.38 1008.63 1478.28 996.09 1479.00 985.00 C 1479.72 973.91 1476.10 961.65 1482.00 953.00
C 1487.50 962.19 1494.85 970.88 1500.70 979.31 C 1506.54 987.73 1512.53 997.50 1519.25 1004.75 C 1525.97 1012.01 1530.72 1023.52 1537.25 1030.75 C 1543.77 1037.99 1549.29 1051.35 1557.00 1055.00 Z"/>
</g>
<g fill="#000000" fill-opacity="0.00" stroke="None">
<path d="
M 1238.00 971.00 
C 1242.92 963.13 1231.01 961.55 1233.22 954.22 C 1235.42 946.90 1223.24 946.00 1224.29 952.70 C 1225.34 959.40 1221.29 960.10 1218.92 966.92 C 1216.55 973.73 1214.73 977.78 1211.93 983.93 C 1209.12 990.08 1208.28 994.65 1205.00 1000.00
C 1206.82 1001.15 1209.46 1002.30 1207.00 1005.00
C 1222.19 1004.92 1238.50 1005.11 1253.00 1005.00
C 1252.03 996.70 1245.53 992.07 1248.00 986.00
C 1241.10 984.11 1246.02 971.62 1238.00 971.00 Z"/>
</g>
<g fill="#252323" fill-opacity="0.47" stroke="None">
<path d="
M 1808.00 988.00 
C 1808.99 983.38 1809.34 977.38 1809.00 972.00
C 1804.30 975.01 1808.01 983.72 1808.00 988.00 Z"/>
</g>
<g fill="#232120" fill-opacity="0.57" stroke="None">
<path d="
M 176.00 1053.00 
C 174.66 1049.69 178.28 1040.87 177.00 1036.00 C 175.72 1031.13 177.46 1024.22 177.00 1019.00 C 176.54 1013.78 177.38 1007.68 176.00 1003.00
C 176.50 1010.48 174.31 1020.72 175.00 1028.00 C 175.69 1035.28 172.22 1047.55 176.00 1053.00 Z"/>
</g>
<g fill="#242120" fill-opacity="0.69" stroke="None">
<path d="
M 962.00 1055.00 
C 961.77 1054.84 962.00 1054.00 962.00 1054.00
C 962.00 1048.23 962.09 1042.10 961.00 1037.00
C 961.25 1039.67 959.87 1055.31 962.00 1055.00 Z"/>
</g>
<g fill="#211F1F" fill-opacity="0.55" stroke="None">
<path d="
M 962.00 1055.00 
C 964.41 1056.68 971.93 1056.32 975.32 1055.34 C 978.71 1054.35 983.97 1057.94 987.00 1055.00
C 979.76 1053.72 970.04 1053.26 962.00 1054.00
C 962.00 1054.00 961.77 1054.84 962.00 1055.00 Z"/>
</g>
<g fill="#22201F" fill-opacity="0.51" stroke="None">
<path d="
M 1557.00 1055.00 
C 1560.55 1056.68 1580.20 1057.64 1582.00 1054.00
C 1574.42 1051.86 1563.63 1056.41 1557.00 1055.00 Z"/>
</g>
</svg>